<?xml version="1.0" encoding="UTF-8"?>
<svg version="1.1" xmlns="http://www.w3.org/2000/svg" width="500" height="500">
<path d="M0 0 C0.95390625 0.66902344 1.9078125 1.33804687 2.890625 2.02734375 C8.92358657 6.37375079 14.76945908 10.78825506 19 17 C19 17.66 19 18.32 19 19 C19.99 19.33 20.98 19.66 22 20 C23.44140625 22.09765625 23.44140625 22.09765625 25 25 C25.62777344 26.15371094 26.25554687 27.30742188 26.90234375 28.49609375 C40.75032976 55.00634671 41.35128503 85.64550238 33.1875 114.21875 C28.15618979 130.23950093 21.31207692 144.58250929 11.76171875 158.4140625 C9.95111498 160.99504681 9.95111498 160.99504681 8.39453125 163.8359375 C7.93433594 164.55007812 7.47414063 165.26421875 7 166 C6.34 166 5.68 166 5 166 C4.9071875 166.8353125 4.9071875 166.8353125 4.8125 167.6875 C3.66477054 170.95411461 1.45923605 172.56114436 -1 175 C-3.60152812 177.98002649 -6.11592828 181.03530596 -8.62695312 184.09179688 C-9.13291016 184.69443359 -9.63886719 185.29707031 -10.16015625 185.91796875 C-10.83510132 186.73430786 -10.83510132 186.73430786 -11.52368164 187.56713867 C-13.20229664 189.19634182 -14.91545558 189.96884 -17 191 C-18.26804566 193.0335948 -18.26804566 193.0335948 -19 195 C-19.66 195 -20.32 195 -21 195 C-21.33 195.99 -21.66 196.98 -22 198 C-23.97202974 199.60800681 -25.92683262 201.09838525 -28 202.5625 C-32.09182799 205.22980344 -32.09182799 205.22980344 -35 209 C-35.99 209 -36.98 209 -38 209 C-38.33 209.99 -38.66 210.98 -39 212 C-40.77734375 213.38671875 -40.77734375 213.38671875 -42.9375 214.6875 C-43.64777344 215.12449219 -44.35804688 215.56148437 -45.08984375 216.01171875 C-47 217 -47 217 -49 217 C-49 217.66 -49 218.32 -49 219 C-59.63629782 225.35282743 -70.33022385 231.38808103 -81.625 236.5 C-82.93621826 237.09433838 -82.93621826 237.09433838 -84.27392578 237.70068359 C-92.96990594 241.55696121 -101.71689922 244.88510002 -111 247 C-112.50022139 247.35583873 -114.00021432 247.71264177 -115.5 248.0703125 C-116.99986406 248.4224545 -118.49986473 248.77401515 -120 249.125 C-121.16208984 249.39763672 -121.16208984 249.39763672 -122.34765625 249.67578125 C-124.23164939 250.11770557 -126.11580723 250.5589276 -128 251 C-124.3202552 253.95065784 -120.41378481 255.76851997 -116.14453125 257.71875 C-114 259 -114 259 -113 262 C-112.01 262.33 -111.02 262.66 -110 263 C-110 263.66 -110 264.32 -110 265 C-109.11634766 265.35771484 -109.11634766 265.35771484 -108.21484375 265.72265625 C-97.00183059 272.18942045 -92.23372169 291.43445619 -88.77929688 303.08984375 C-86.57171077 311.33371167 -85.02987082 319.74530213 -83.39453125 328.1171875 C-80.24475777 344.07171791 -76.16997335 362.62774497 -65.27734375 375.29296875 C-63 378 -63 378 -63 380 C-62.195625 380.37125 -62.195625 380.37125 -61.375 380.75 C-59 382 -59 382 -56.1875 383.9375 C-49.06609979 388.54546484 -43.69097735 389.52905242 -35.3125 389.4375 C-33.83885986 389.42396484 -33.83885986 389.42396484 -32.33544922 389.41015625 C-24.89339424 389.23270039 -18.76655387 388.22433104 -12 385 C-11.39526855 384.72623535 -10.79053711 384.4524707 -10.16748047 384.17041016 C-0.08823663 379.59344612 10.89027115 374.22006255 18.73046875 366.23828125 C20 365 20 365 22 365 C22.33 364.01 22.66 363.02 23 362 C24.6015625 360.421875 24.6015625 360.421875 26.625 358.75 C30.15370094 355.77345191 33.38509741 352.63902483 36.5546875 349.28515625 C38 348 38 348 40 348 C40.22945313 347.41605469 40.45890625 346.83210938 40.6953125 346.23046875 C42.34059754 343.41772097 44.19337928 342.14666492 46.875 340.3125 C47.73867188 339.71050781 48.60234375 339.10851562 49.4921875 338.48828125 C53.19498672 336.29082564 56.23866039 335.84898407 60.5 335.8125 C61.2528125 335.79832031 62.005625 335.78414063 62.78125 335.76953125 C66.21492968 336.12619868 68.20009352 337.26357816 70.72265625 339.5859375 C72.64022014 343.20995733 72.49013709 346.58271993 72.4375 350.625 C72.42505249 351.83941772 72.42505249 351.83941772 72.41235352 353.07836914 C72.23314449 359.43486855 71.21349387 364.44333352 68 370 C67.525625 370.84175781 67.05125 371.68351562 66.5625 372.55078125 C63.20790925 378.12295003 59.35288524 383.30137769 55.375 388.4375 C54.91988037 389.02885742 54.46476074 389.62021484 53.99584961 390.22949219 C51.28031979 393.66388214 48.49558308 396.3224069 45 399 C44.175 399.99 43.35 400.98 42.5 402 C40.17308962 404.79229245 37.96626811 406.91559538 35 409 C34.34 409 33.68 409 33 409 C32.69255859 409.83724609 32.69255859 409.83724609 32.37890625 410.69140625 C30.48909252 413.85537201 27.84536761 415.76855734 24.9375 417.9375 C24.06013184 418.60217285 24.06013184 418.60217285 23.16503906 419.28027344 C19.3002733 422.16027736 15.37565766 424.65065445 11.08984375 426.8671875 C8.87670125 428.06683484 6.87331603 429.43053812 4.8125 430.875 C-21.27822723 448.37324073 -56.82397065 456.3620265 -87.78613281 450.81518555 C-95.44436605 449.25272992 -102.31940879 447.16092186 -109 443 C-109.91007812 442.4740625 -110.82015625 441.948125 -111.7578125 441.40625 C-127.63286907 431.88986731 -136.48004088 417.44461269 -144 401 C-144.78697266 399.29457031 -144.78697266 399.29457031 -145.58984375 397.5546875 C-153.52732818 379.06898105 -157.44295317 359.11226797 -160.87109375 339.37719727 C-162.94018064 327.59347675 -165.49019309 315.97046478 -170.0625 304.875 C-170.54847656 303.67617188 -171.03445313 302.47734375 -171.53515625 301.2421875 C-172.91929917 298.01155105 -172.91929917 298.01155105 -174.68359375 295.1953125 C-176 293 -176 293 -176 291 C-176.66 291 -177.32 291 -178 291 C-178 290.01 -178 289.02 -178 288 C-179.32 287.34 -180.64 286.68 -182 286 C-182 285.34 -182 284.68 -182 284 C-182.58265625 283.71253906 -183.1653125 283.42507813 -183.765625 283.12890625 C-185.14328477 282.43285088 -186.51076861 281.71564353 -187.859375 280.96484375 C-192.65020131 278.36156416 -196.5621875 277.38841518 -202 277 C-202.268125 277.85078125 -202.53625 278.7015625 -202.8125 279.578125 C-205.52593793 287.96836071 -208.5962981 296.14302526 -211.91601562 304.31152344 C-214.22219829 310.00369953 -216.40623381 315.72651785 -218.5 321.5 C-221.22882208 329.01835912 -224.15158721 336.44347087 -227.15576172 343.85571289 C-229.10236348 348.68136621 -230.92402682 353.51994292 -232.625 358.4375 C-234.60135749 364.09465752 -236.9701312 369.46383593 -239.546875 374.87109375 C-240.89685344 377.77790217 -242.08420823 380.70323727 -243.25 383.6875 C-248.53610613 396.47919912 -255.63316224 409.70455332 -265 420 C-265.66 420 -266.32 420 -267 420 C-267 420.99 -267 421.98 -267 423 C-268.4297838 424.26352987 -269.87053791 425.51778652 -271.375 426.69140625 C-273.17424816 428.08013648 -273.17424816 428.08013648 -275.1875 430.3125 C-293.92856008 448.22062407 -317.33533423 454.70192969 -342.5625 454.25390625 C-352.96393689 453.89304747 -362.73709203 451.85454907 -372 447 C-372.95003906 446.54753906 -373.90007812 446.09507812 -374.87890625 445.62890625 C-378.09420255 443.95083547 -380.9400406 442.06514672 -383.875 439.9375 C-384.84179688 439.24527344 -385.80859375 438.55304688 -386.8046875 437.83984375 C-387.52914062 437.23269531 -388.25359375 436.62554687 -389 436 C-389 435.34 -389 434.68 -389 434 C-389.99 433.67 -390.98 433.34 -392 433 C-393.67558627 431.16072413 -395.18757262 429.34979898 -396.6875 427.375 C-397.12594238 426.79959473 -397.56438477 426.22418945 -398.01611328 425.63134766 C-405.0856512 416.08657464 -410.5985377 405.38951179 -414 394 C-414.50466797 392.32164062 -414.50466797 392.32164062 -415.01953125 390.609375 C-425.5105853 352.41722317 -421.43293846 312.16765502 -413 274 C-412.8232373 273.19868652 -412.64647461 272.39737305 -412.46435547 271.57177734 C-410.56716089 263.15401956 -408.09035855 254.99282541 -405.27734375 246.8359375 C-404.14988533 243.52269481 -403.17321883 240.18063681 -402.22436523 236.8125 C-398.43457921 223.37612626 -393.58893453 210.32842455 -387 198 C-386.28672515 196.60668532 -385.57819487 195.21092904 -384.875 193.8125 C-384.58367187 193.24144531 -384.29234375 192.67039063 -383.9921875 192.08203125 C-383.20184674 190.42356029 -382.47774313 188.73356879 -381.77734375 187.03515625 C-379.38673316 181.41751982 -376.50005529 176.03940837 -373.6875 170.625 C-372.8531543 168.99691406 -372.8531543 168.99691406 -372.00195312 167.3359375 C-369.08381005 161.71027402 -366.03485851 156.33751785 -362.44018555 151.11816406 C-359.99750188 147.52556812 -357.79928021 143.78535468 -355.5625 140.0625 C-351.98067879 134.14290193 -348.30875347 128.35368899 -344.2421875 122.75 C-342.94424173 121.01601331 -342.94424173 121.01601331 -342 119 C-341.34 119 -340.68 119 -340 119 C-339.59599976 117.8874585 -339.59599976 117.8874585 -339.18383789 116.75244141 C-338.04529827 114.10531918 -336.83411413 112.21266904 -335.05859375 109.9609375 C-334.19016846 108.85141724 -334.19016846 108.85141724 -333.30419922 107.71948242 C-332.68818848 106.94580322 -332.07217773 106.17212402 -331.4375 105.375 C-330.80344238 104.57102783 -330.16938477 103.76705566 -329.51611328 102.9387207 C-327.68377794 100.62066959 -325.8428345 98.30970689 -324 96 C-323.16534618 94.94402497 -322.33070783 93.8880377 -321.49609375 92.83203125 C-312.64885309 81.80149363 -302.81832342 71.72221769 -292.875 61.6875 C-292.03275879 60.83220703 -291.19051758 59.97691406 -290.32275391 59.09570312 C-289.53304199 58.30486328 -288.74333008 57.51402344 -287.9296875 56.69921875 C-287.22054199 55.98596436 -286.51139648 55.27270996 -285.78076172 54.5378418 C-284 53 -284 53 -282 53 C-282 52.34 -282 51.68 -282 51 C-280.12109375 49.2578125 -280.12109375 49.2578125 -277.4375 47.125 C-276.44621094 46.33480469 -275.45492187 45.54460937 -274.43359375 44.73046875 C-273.88687012 44.29782715 -273.34014648 43.86518555 -272.77685547 43.41943359 C-270.84703671 41.87780591 -268.94043275 40.31012285 -267.03515625 38.73828125 C-265.69027071 37.63781727 -264.34522021 36.53755485 -263 35.4375 C-262.35345459 34.9007666 -261.70690918 34.3640332 -261.04077148 33.81103516 C-256.33983423 30 -256.33983423 30 -253 30 C-253 29.34 -253 28.68 -253 28 C-248.66411887 24.58664677 -244.1380072 21.91565772 -239.2890625 19.3046875 C-237.08181292 18.04663057 -235.06603217 16.66323726 -233 15.1875 C-227.42223377 11.3875857 -221.31780223 8.7429719 -215.19921875 5.9453125 C-211.73888909 4.3611025 -208.3675077 2.64932819 -205 0.875 C-191.82546782 -5.73907993 -177.39074441 -9.47768389 -163.23779297 -13.37890625 C-161.41630855 -13.88445462 -159.59990717 -14.40828953 -157.78515625 -14.9375 C-112.04655124 -28.14323257 -40.38374363 -29.64166782 0 0 Z M-216 62 C-216.90492188 62.474375 -217.80984375 62.94875 -218.7421875 63.4375 C-222.82141614 65.63506425 -226.58111587 68.05097638 -230.3046875 70.8046875 C-233.07926147 72.76095394 -236.03634742 74.34719375 -239 76 C-239.99 76.66 -240.98 77.32 -242 78 C-242 78.66 -242 79.32 -242 80 C-242.6703125 80.19851562 -243.340625 80.39703125 -244.03125 80.6015625 C-248.13818384 82.53614449 -251.14229354 85.35638865 -254.5 88.375 C-255.80135399 89.52946849 -257.10342229 90.68313237 -258.40625 91.8359375 C-259.02169678 92.38338623 -259.63714355 92.93083496 -260.27124023 93.49487305 C-261.7503097 94.7826097 -263.27903041 96.01293531 -264.81640625 97.23046875 C-267.19513949 99.04005563 -267.19513949 99.04005563 -269.4375 101.9375 C-271.33759641 104.20834693 -272.87258366 105.81750541 -275.125 107.625 C-277.57538887 109.64923428 -279.33595199 111.31903375 -281 114 C-281 114.66 -281 115.32 -281 116 C-281.60231445 116.26425781 -282.20462891 116.52851563 -282.82519531 116.80078125 C-285.10095842 118.05566993 -286.21059528 119.15613227 -287.796875 121.1875 C-288.28027344 121.80367188 -288.76367188 122.41984375 -289.26171875 123.0546875 C-289.75285156 123.69664062 -290.24398437 124.33859375 -290.75 125 C-291.25660156 125.64195312 -291.76320313 126.28390625 -292.28515625 126.9453125 C-295.04661946 130.104814 -295.04661946 130.104814 -296 134 C-296.66 134 -297.32 134 -298 134 C-300.6020866 137.49655387 -302.54997977 140.89160936 -304 145 C-304.66 145 -305.32 145 -306 145 C-306.29132813 145.54527344 -306.58265625 146.09054688 -306.8828125 146.65234375 C-307.29273438 147.40644531 -307.70265625 148.16054687 -308.125 148.9375 C-308.51945312 149.66839844 -308.91390625 150.39929688 -309.3203125 151.15234375 C-310.75270275 153.5807449 -312.2564052 155.89859415 -313.83203125 158.234375 C-320.85225542 168.68360884 -327.44132807 179.62756874 -331.96484375 191.3984375 C-332.97507977 193.9373703 -334.15225156 196.2781628 -335.4375 198.6875 C-338.74681417 205.15051796 -340.93287684 212.02011925 -343.26806641 218.87792969 C-343.95405125 220.86678235 -344.66314859 222.84486755 -345.38671875 224.8203125 C-347.94718823 231.81739126 -350.1708117 238.77951985 -352 246 C-352.30679688 247.13179687 -352.61359375 248.26359375 -352.9296875 249.4296875 C-362.58915921 286.04582445 -372.21291145 340.8927025 -352.484375 375.671875 C-349.64384072 379.76822443 -346.89988004 382.55885881 -342 384 C-337.5191134 384.17478636 -334.24125239 383.80794934 -330.4375 381.33203125 C-322.8118582 374.03634511 -319.48859571 361.38145188 -315.97949219 351.67431641 C-314.06786176 346.4549745 -312.0851889 341.26214183 -310.11169434 336.06594849 C-309.39235662 334.17072902 -308.67498585 332.27477532 -307.95800781 330.37866211 C-305.65558552 324.30264343 -303.31446545 318.24738909 -300.88476562 312.22119141 C-299.55268446 308.87702075 -298.30690516 305.50254813 -297.0625 302.125 C-294.85218023 296.14847706 -292.47025101 290.27892994 -289.8828125 284.453125 C-288.77425776 281.80723963 -288.77425776 281.80723963 -289 278 C-290.32064453 277.70996094 -290.32064453 277.70996094 -291.66796875 277.4140625 C-292.82941406 277.15367187 -293.99085938 276.89328125 -295.1875 276.625 C-296.33605469 276.36976563 -297.48460937 276.11453125 -298.66796875 275.8515625 C-306.42276102 273.86968124 -306.42276102 273.86968124 -308.1796875 271.22265625 C-311.85792918 259.7953099 -308.76735694 248.8253705 -303.68359375 238.265625 C-298.49253459 228.93020526 -290.75042681 222.11422764 -280.5078125 218.90625 C-270.42516312 216.05191046 -270.42516312 216.05191046 -266.87524414 215.92260742 C-264.46093279 215.89722837 -264.46093279 215.89722837 -261 215 C-259.24224482 212.38746807 -258.32248891 210.57750078 -257.3125 207.6875 C-257.02616699 206.95692383 -256.73983398 206.22634766 -256.44482422 205.47363281 C-255.8685049 203.99905697 -255.30512125 202.519354 -254.75537109 201.03466797 C-253.78090126 198.40983552 -252.70994194 195.83090284 -251.625 193.25 C-251.233125 192.30253906 -250.84125 191.35507813 -250.4375 190.37890625 C-246.06097601 180.09169632 -241.39374583 169.92315823 -236.625 159.8125 C-233.96899637 154.16694809 -231.44289211 148.47343923 -228.94799805 142.75488281 C-214.4277467 109.48879356 -214.4277467 109.48879356 -203 99 C-202.01 98.67 -201.02 98.34 -200 98 C-200 97.34 -200 96.68 -200 96 C-199.195625 95.7525 -198.39125 95.505 -197.5625 95.25 C-194.79006253 94.27721492 -192.22395287 93.22135166 -189.5625 92 C-176.24116696 86.03753979 -160.11243676 85.19748232 -146 89 C-142.37167989 90.72597172 -139.66610056 92.65209954 -137.83984375 96.34765625 C-132.65348351 112.72690556 -144.23065363 132.65373578 -150.23828125 147.5703125 C-155.95113578 161.85751041 -161.39698598 176.25355879 -166.66333008 190.71069336 C-168.56358951 195.89822562 -170.63649625 200.99066562 -172.80078125 206.07421875 C-177.0584154 215.32329064 -177.0584154 215.32329064 -179 225 C-155.41754426 222.76870729 -129.00541269 213.16089573 -110 199 C-108.80151702 198.29546879 -107.59297208 197.60777585 -106.375 196.9375 C-103.2842056 195.16315507 -100.71826353 193.28906402 -98 191 C-97.071875 190.29875 -96.14375 189.5975 -95.1875 188.875 C-94.1046875 187.946875 -94.1046875 187.946875 -93 187 C-93 186.34 -93 185.68 -93 185 C-92.40832031 184.73445312 -91.81664062 184.46890625 -91.20703125 184.1953125 C-87.47989254 182.17672056 -84.88092523 179.06442365 -82 176 C-81.46503906 175.44699219 -80.93007813 174.89398438 -80.37890625 174.32421875 C-70.26347315 163.38402612 -62.67796711 150.70490142 -57 137 C-56.40251953 135.62134766 -56.40251953 135.62134766 -55.79296875 134.21484375 C-47.80832031 114.38779539 -47.48465264 91.88267375 -55.15625 72.00390625 C-56.04267763 69.97462014 -57.00967116 67.98065768 -58 66 C-58.66 66 -59.32 66 -60 66 C-60.24234375 65.26910156 -60.4846875 64.53820312 -60.734375 63.78515625 C-66.2829472 51.57487236 -80.10142246 46.35889969 -91.7734375 41.953125 C-133.49931898 29.62731982 -178.87506065 42.38044207 -216 62 Z " fill="#651BCB" transform="translate(428,27)"/>
<path d="M0 0 C0.33 0 0.66 0 1 0 C1.18191945 5.79110261 1.2808978 11.32616397 0 17 C-1.34739334 23.3977628 -1.13090959 29.7671359 -1.01367188 36.27148438 C-1.00013672 37.11130859 -0.98660156 37.95113281 -0.97265625 38.81640625 C-0.95468994 39.57381104 -0.93672363 40.33121582 -0.91821289 41.11157227 C-1 43 -1 43 -2 45 C-2.08991092 46.54227856 -2.11756961 48.08840895 -2.11352539 49.63330078 C-2.11344986 50.59414581 -2.11337433 51.55499084 -2.11329651 52.54495239 C-2.10813522 53.58457123 -2.10297394 54.62419006 -2.09765625 55.6953125 C-2.0962413 56.75789276 -2.09482635 57.82047302 -2.09336853 58.91525269 C-2.08775834 62.31853009 -2.07520409 65.72174238 -2.0625 69.125 C-2.05748631 71.42838447 -2.05292318 73.73176997 -2.04882812 76.03515625 C-2.0377856 81.69012649 -2.02103752 87.34505859 -2 93 C-2.33 93 -2.66 93 -3 93 C-7.66006414 62.16425643 -7.53224302 30.44949307 0 0 Z " fill="#431085" transform="translate(13,312)"/>
<path d="M0 0 C0 0.33 0 0.66 0 1 C-1.87491693 1.02730462 -3.74995225 1.04653244 -5.625 1.0625 C-6.66914063 1.07410156 -7.71328125 1.08570313 -8.7890625 1.09765625 C-12 1 -12 1 -14.71875 0.52832031 C-18.37842292 -0.0609306 -22.0146723 -0.34415387 -25.7109375 -0.55078125 C-26.44766693 -0.59262039 -27.18439636 -0.63445953 -27.94345093 -0.67756653 C-35.71644511 -1.08595761 -43.48401766 -1.18611039 -51.26660156 -1.18530273 C-53.63103847 -1.18750563 -55.99501873 -1.20581753 -58.359375 -1.22460938 C-67.01173572 -1.25537652 -75.32958757 -0.77813704 -83.88256836 0.55688477 C-87.65291572 1.09280617 -91.20193029 1.15502325 -95 1 C-95 0.67 -95 0.34 -95 0 C-65.39108631 -7.26486748 -29.70212197 -6.55578318 0 0 Z " fill="#3E1078" transform="translate(380,9)"/>
<path d="M0 0 C5.80173582 -0.30008978 8.8167684 0.1830263 14 3 C19.37816163 4.25180457 24.72338087 4.12806258 30.2109375 4.09765625 C31.66314194 4.09553383 31.66314194 4.09553383 33.14468384 4.09336853 C36.22148799 4.08779365 39.29821803 4.07524577 42.375 4.0625 C44.46744686 4.05748175 46.55989487 4.05291941 48.65234375 4.04882812 C53.7682575 4.03783245 58.88411621 4.02058515 64 4 C47.95168178 12.28748804 23.68305298 9.18170342 7 4 C4.61793414 3.07961836 2.32205839 2.06771855 0 1 C0 0.67 0 0.34 0 0 Z " fill="#420F7C" transform="translate(322,471)"/>
<path d="M0 0 C1.20629059 -0.00855011 1.20629059 -0.00855011 2.43695068 -0.01727295 C4.14171024 -0.02672801 5.84648811 -0.03325894 7.55126953 -0.03710938 C10.14779044 -0.04678525 12.7435097 -0.07779063 15.33984375 -0.109375 C16.99739114 -0.11590819 18.65494419 -0.12115742 20.3125 -0.125 C21.08458801 -0.1373468 21.85667603 -0.1496936 22.65216064 -0.16241455 C27.48799625 -0.14263852 30.67178002 0.64902191 34.921875 3.203125 C34.921875 3.533125 34.921875 3.863125 34.921875 4.203125 C33.75398438 4.09484375 33.75398438 4.09484375 32.5625 3.984375 C16.18216673 2.62563768 0.4441411 2.94427473 -15.8527832 5.22363281 C-16.8655835 5.3625293 -17.87838379 5.50142578 -18.921875 5.64453125 C-19.82099609 5.77545166 -20.72011719 5.90637207 -21.64648438 6.04125977 C-24.06055412 6.20195537 -25.78731574 5.9335038 -28.078125 5.203125 C-24.49315303 3.05034032 -21.06773268 2.65172971 -16.953125 2.140625 C-11.05575992 1.39885663 -5.98084952 0.0325793 0 0 Z " fill="#4D178F" transform="translate(291.078125,62.796875)"/>
<path d="M0 0 C0.66 0.33 1.32 0.66 2 1 C1.67 1.99 1.34 2.98 1 4 C0.34 4 -0.32 4 -1 4 C-1 4.66 -1 5.32 -1 6 C-2.65 6.33 -4.3 6.66 -6 7 C-6.33 8.65 -6.66 10.3 -7 12 C-8.32 12.33 -9.64 12.66 -11 13 C-11 13.99 -11 14.98 -11 16 C-11.74765625 16.17015625 -12.4953125 16.3403125 -13.265625 16.515625 C-14.25046875 16.75796875 -15.2353125 17.0003125 -16.25 17.25 C-17.22453125 17.48203125 -18.1990625 17.7140625 -19.203125 17.953125 C-22.32867909 19.12302514 -23.86952249 20.46371726 -26 23 C-26 23.33 -26 23.66 -26 24 C-27.98 24 -29.96 24 -32 24 C-32.33 24.99 -32.66 25.98 -33 27 C-34.92578125 27.984375 -34.92578125 27.984375 -37.3125 28.75 C-38.09238281 29.01296875 -38.87226563 29.2759375 -39.67578125 29.546875 C-42.16921091 30.03298902 -43.6181897 29.80665429 -46 29 C-43.3125 27.65625 -43.3125 27.65625 -40.625 26.3125 C-39.53058594 25.76335937 -38.43617188 25.21421875 -37.30859375 24.6484375 C-35.28626946 23.6408568 -33.25877752 22.6434626 -31.22265625 21.6640625 C-26.72147349 19.48629457 -22.64726847 17.19544332 -18.65234375 14.1875 C-16.9493955 12.96363176 -15.21127502 11.94843851 -13.375 10.9375 C-9.98586531 9.10631061 -9.98586531 9.10631061 -7.1875 6.75 C-5 5 -5 5 -3 5 C-2.67 4.01 -2.34 3.02 -2 2 C-1.34 2 -0.68 2 0 2 C0 1.34 0 0.68 0 0 Z " fill="#4B168F" transform="translate(335,212)"/>
<path d="M0 0 C1.875 0.3125 1.875 0.3125 4 1 C6 4 6 4 6 7 C6.66 7 7.32 7 8 7 C8.19335938 7.62648438 8.38671875 8.25296875 8.5859375 8.8984375 C8.84632813 9.71570313 9.10671875 10.53296875 9.375 11.375 C9.63023437 12.18710938 9.88546875 12.99921875 10.1484375 13.8359375 C10.89854283 16.16459185 10.89854283 16.16459185 13 18 C13.11692746 20.68347569 13.1134663 23.25258628 13.01171875 25.9296875 C12.98906448 26.71642853 12.96641022 27.50316956 12.94306946 28.31375122 C12.89306805 29.97999012 12.83809618 31.64608609 12.77856445 33.31201172 C12.68812084 35.85752667 12.61323291 38.40312818 12.54101562 40.94921875 C12.49050265 42.56773729 12.43909945 44.18622833 12.38671875 45.8046875 C12.36373215 46.5652243 12.34074554 47.32576111 12.31706238 48.10934448 C12.1909672 51.51951795 12.04452608 54.73404725 11 58 C10.34 58 9.68 58 9 58 C9.0721875 57.41476563 9.144375 56.82953125 9.21875 56.2265625 C11.25160699 37.42263531 9.35882925 21.80472189 3 4 C2.34 4 1.68 4 1 4 C0.67 2.68 0.34 1.36 0 0 Z " fill="#601EB3" transform="translate(367,89)"/>
<path d="M0 0 C1.30459087 4.21695219 0.28430031 6.79034898 -1 11 C-1.36950465 13.32787927 -1.71352467 15.66045145 -2 18 C-2.66 18 -3.32 18 -4 18 C-4.13277344 19.07121094 -4.26554687 20.14242188 -4.40234375 21.24609375 C-4.5805056 22.64325769 -4.75890319 24.04039159 -4.9375 25.4375 C-5.02451172 26.14455078 -5.11152344 26.85160156 -5.20117188 27.58007812 C-5.88671875 32.88671875 -5.88671875 32.88671875 -7 34 C-7.20604085 35.32781878 -7.3662959 36.66295895 -7.5 38 C-7.88888889 41.88888889 -7.88888889 41.88888889 -9 43 C-9.12375 44.134375 -9.2475 45.26875 -9.375 46.4375 C-9.58125 47.613125 -9.7875 48.78875 -10 50 C-10.99 50.66 -11.98 51.32 -13 52 C-13.27491822 46.15602409 -12.28934015 41.14111644 -10.8125 35.5 C-10.47629639 34.18539795 -10.47629639 34.18539795 -10.13330078 32.84423828 C-8.40576762 26.22705089 -6.37476186 19.76074796 -4.13671875 13.30078125 C-2.62313276 8.90566041 -1.29206551 4.46445401 0 0 Z " fill="#3D1175" transform="translate(27,260)"/>
<path d="M0 0 C0.66 0.33 1.32 0.66 2 1 C-0.60431538 5.34052563 -2.69907234 7.46355548 -7 10 C-7.474375 10.804375 -7.94875 11.60875 -8.4375 12.4375 C-10.42915137 15.70380824 -12.71283066 17.11162612 -16 19 C-16.66 19 -17.32 19 -18 19 C-18.20625 19.5775 -18.4125 20.155 -18.625 20.75 C-20.49226612 23.80552637 -23.01934365 25.07499277 -26 27 C-26.66 27.99 -27.32 28.98 -28 30 C-31.125 30.1875 -31.125 30.1875 -34 30 C-30.60994909 26.29213182 -27.21360058 23.73084236 -22.8671875 21.2109375 C-20.93684149 20.05535299 -20.93684149 20.05535299 -19.3828125 18.3515625 C-18 17 -18 17 -16 17 C-15.67 16.01 -15.34 15.02 -15 14 C-13.3984375 12.421875 -13.3984375 12.421875 -11.375 10.75 C-7.36917659 7.35878848 -3.6577926 3.76066802 0 0 Z " fill="#48178C" transform="translate(466,375)"/>
<path d="M0 0 C0.66 0 1.32 0 2 0 C0.73251309 5.38681935 -0.77931279 10.51904521 -2.75 15.6875 C-3.00950439 16.37448975 -3.26900879 17.06147949 -3.53637695 17.76928711 C-5.68423112 23.36482534 -8.10883253 28.78625683 -10.67578125 34.203125 C-12.20621498 37.43554549 -13.61923631 40.70150895 -15 44 C-15.33 44 -15.66 44 -16 44 C-16 41.69 -16 39.38 -16 37 C-15.34 37 -14.68 37 -14 37 C-13.896875 36.154375 -13.79375 35.30875 -13.6875 34.4375 C-12.9296948 30.648474 -11.5498336 27.5336206 -10 24 C-9.25704087 21.68051785 -8.62488933 19.35535209 -8 17 C-7.34 17 -6.68 17 -6 17 C-6 16.34 -6 15.68 -6 15 C-5.34 15 -4.68 15 -4 15 C-4.061875 14.113125 -4.12375 13.22625 -4.1875 12.3125 C-3.97707186 8.59493626 -3.01296289 7.05970359 -1 4 C-0.30420546 1.80869466 -0.30420546 1.80869466 0 0 Z " fill="#48128A" transform="translate(199,368)"/>
<path d="M0 0 C0 0.99 0 1.98 0 3 C-0.556875 3.21914063 -1.11375 3.43828125 -1.6875 3.6640625 C-5.88689368 5.40908082 -9.49665294 7.21974717 -13.0625 10.0625 C-16.86628844 13.07667966 -20.4055051 14.4685017 -25 16 C-27.73534618 17.10892413 -28.73955255 17.62631453 -30.4375 20.0625 C-32.43958017 22.54507941 -33.90228009 22.66511136 -37 23 C-37 22.34 -37 21.68 -37 21 C-32.67196148 17.59282074 -28.15374407 14.92742277 -23.31640625 12.31640625 C-20.97377135 10.98509434 -18.78012992 9.52926508 -16.5625 8 C-4.79047927 0 -4.79047927 0 0 0 Z " fill="#3F117C" transform="translate(212,34)"/>
<path d="M0 0 C1.18478049 3.41472739 0.83757491 5.18363534 -0.546875 8.484375 C-0.8975 9.33773438 -1.248125 10.19109375 -1.609375 11.0703125 C-1.98578125 11.95460938 -2.3621875 12.83890625 -2.75 13.75 C-3.47470968 15.49447973 -4.19867745 17.23926786 -4.921875 18.984375 C-5.27403076 19.82935547 -5.62618652 20.67433594 -5.98901367 21.54492188 C-8.37989915 27.35094564 -10.34683775 32.72964243 -11 39 C-11.66 39 -12.32 39 -13 39 C-12.95875 39.763125 -12.9175 40.52625 -12.875 41.3125 C-13 44 -13 44 -15 47 C-15.66 47 -16.32 47 -17 47 C-16.40410832 42.6257622 -15.31766851 38.84813261 -13.6875 34.75 C-13.23632812 33.60660156 -12.78515625 32.46320313 -12.3203125 31.28515625 C-10.91857672 27.79740538 -9.5153214 24.31027438 -8.109375 20.82421875 C-6.35448253 16.35665798 -4.68610637 11.85672427 -3.01782227 7.35620117 C-1.10229642 2.20459285 -1.10229642 2.20459285 0 0 Z " fill="#350D6C" transform="translate(134,319)"/>
<path d="M0 0 C1.07310858 3.27185553 0.89263102 5.42947592 0.0625 8.75 C-0.13214844 9.54921875 -0.32679688 10.3484375 -0.52734375 11.171875 C-0.68332031 11.77515625 -0.83929688 12.3784375 -1 13 C-1.99 13 -2.98 13 -4 13 C-4 16.3 -4 19.6 -4 23 C-4.99 23.33 -5.98 23.66 -7 24 C-9.86672304 28.47925475 -11.99364025 33.08441862 -14 38 C-14.66 38 -15.32 38 -16 38 C-15.57045619 36.6016978 -15.13092966 35.20646093 -14.6875 33.8125 C-14.44386719 33.03519531 -14.20023438 32.25789063 -13.94921875 31.45703125 C-13 29 -13 29 -11.54296875 26.58203125 C-9.85287657 23.75380104 -8.75707576 20.96731432 -7.625 17.875 C-5.340563 11.78548252 -2.77028734 5.88243992 0 0 Z " fill="#3B0F79" transform="translate(184,201)"/>
<path d="M0 0 C1.65696234 2.4854435 2.47983243 4.0907591 3.3671875 6.84375 C3.61090088 7.59027832 3.85461426 8.33680664 4.10571289 9.10595703 C4.35957764 9.89599121 4.61344238 10.68602539 4.875 11.5 C5.4119375 13.13308329 5.94969603 14.76589688 6.48828125 16.3984375 C6.74818848 17.18959961 7.0080957 17.98076172 7.27587891 18.79589844 C9.80304982 26.48817728 12.33589737 33.32880402 17 40 C17.99 39.505 17.99 39.505 19 39 C19 40.32 19 41.64 19 43 C19.66 43.33 20.32 43.66 21 44 C20.67 45.32 20.34 46.64 20 48 C8.8600268 34.63203215 1.8127599 17.24984156 0 0 Z " fill="#310C65" transform="translate(11,405)"/>
<path d="M0 0 C2.31738403 6.95215209 -2.53545232 15.70887615 -5 22.375 C-5.24886963 23.05264404 -5.49773926 23.73028809 -5.75415039 24.4284668 C-7.18279917 28.20187661 -8.80393364 31.61439769 -11 35 C-12.70291208 31.59417584 -11.04440176 27.99582088 -10.1875 24.4375 C-10.00896484 23.64408203 -9.83042969 22.85066406 -9.64648438 22.03320312 C-9.16661267 20.00457581 -8.59001295 17.99937249 -8 16 C-7.34 15.67 -6.68 15.34 -6 15 C-4.87955751 12.48916386 -3.85252068 10.00290713 -2.875 7.4375 C-2.59785156 6.72658203 -2.32070313 6.01566406 -2.03515625 5.28320312 C-1.35057404 3.52453504 -0.67448365 1.76256576 0 0 Z " fill="#451382" transform="translate(462,131)"/>
<path d="M0 0 C0.495 0.99 0.495 0.99 1 2 C-7.25 1.34 -15.5 0.68 -24 0 C-24.33 0.99 -24.66 1.98 -25 3 C-30.61 3 -36.22 3 -42 3 C-30.87975581 -4.41349613 -12.41296721 -3.26444917 0 0 Z " fill="#3B0F71" transform="translate(282,115)"/>
<path d="M0 0 C0.66 0.33 1.32 0.66 2 1 C-4.2360482 4.25626162 -10.15027372 7.32562246 -17 9 C-17.33 9.33 -17.66 9.66 -18 10 C-21.43020341 10.25194063 -24.87413911 10.18522745 -28.3125 10.1875 C-29.27607422 10.19974609 -30.23964844 10.21199219 -31.23242188 10.22460938 C-32.16248047 10.22654297 -33.09253906 10.22847656 -34.05078125 10.23046875 C-34.90325439 10.23457764 -35.75572754 10.23868652 -36.6340332 10.24291992 C-39.17720347 9.98180606 -40.80620312 9.27889646 -43 8 C-40.56092276 6.78046138 -39.13162496 6.94304679 -36.4140625 7.04296875 C-25.89628329 7.31674049 -16.7448525 7.52497297 -7 3 C-4.67425204 1.97551422 -2.34925141 0.97034297 0 0 Z " fill="#371071" transform="translate(423,409)"/>
<path d="M0 0 C2.61941645 2.61941645 2.54724345 4.42972479 3.0625 8.0625 C3.31267471 11.84863663 3.31267471 11.84863663 5 15 C5.24435164 17.1901147 5.38322739 19.37904017 5.5234375 21.578125 C5.86798092 24.11538277 5.86798092 24.11538277 7.52734375 26.37109375 C9.3989428 29.7121711 9.30265492 32.01238778 9.1875 35.8125 C9.16042969 36.97394531 9.13335937 38.13539063 9.10546875 39.33203125 C9.07066406 40.21246094 9.03585937 41.09289062 9 42 C6.62108404 38.43162607 5.93451275 34.9984241 5.0625 30.875 C4.89137695 30.08399902 4.72025391 29.29299805 4.54394531 28.47802734 C3.35125845 22.87772954 2.26084941 17.26084007 1.25 11.625 C1.12246338 10.91843262 0.99492676 10.21186523 0.86352539 9.48388672 C0.30206021 6.24433114 0 3.3033124 0 0 Z " fill="#370C65" transform="translate(266,355)"/>
<path d="M0 0 C1.35513702 2.71027404 0.66998721 3.74349475 -0.1875 6.625 C-3.53120532 18.34330672 -6.42507761 29.89796481 -8 42 C-8.33 42 -8.66 42 -9 42 C-9.66105931 32.46972821 -7.94496461 24.11568956 -5.52587891 14.98730469 C-5.04643586 13.17548184 -4.59030935 11.35752977 -4.13671875 9.5390625 C-2.27876984 2.27876984 -2.27876984 2.27876984 0 0 Z " fill="#42147E" transform="translate(79,260)"/>
<path d="M0 0 C9.61894892 2.01687639 18.64144003 4.75056254 27.75 8.4375 C28.47123047 8.72584717 29.19246094 9.01419434 29.93554688 9.3112793 C34.34028254 11.13113597 38.12244345 13.2259619 42 16 C41.01 16.495 41.01 16.495 40 17 C37.375 16.0625 37.375 16.0625 35 15 C35 14.34 35 13.68 35 13 C31.7 12.34 28.4 11.68 25 11 C25 10.34 25 9.68 25 9 C22.03 8.34 19.06 7.68 16 7 C16 6.34 16 5.68 16 5 C15.00419922 4.92652344 15.00419922 4.92652344 13.98828125 4.8515625 C4.77780035 4.07169696 4.77780035 4.07169696 1 2 C0.67 1.34 0.34 0.68 0 0 Z " fill="#39116C" transform="translate(384,10)"/>
<path d="M0 0 C0.99 0.66 1.98 1.32 3 2 C3.33549154 4.92572805 3.47365586 7.57431474 3.4375 10.5 C3.42940308 11.71925171 3.42940308 11.71925171 3.42114258 12.96313477 C3.24608025 19.89850902 2.26465013 26.50160404 -2.63671875 31.75390625 C-3.08660156 32.16511719 -3.53648437 32.57632813 -4 33 C-3.23266423 28.3959854 -3.23266423 28.3959854 -2.00390625 26.3046875 C-0.59536126 23.0710628 -0.49555615 19.84973861 -0.3125 16.375 C-0.26544922 15.694375 -0.21839844 15.01375 -0.16992188 14.3125 C0.12912836 10.53569481 0.12912836 10.53569481 -1 7 C-0.34 7 0.32 7 1 7 C0.67 4.69 0.34 2.38 0 0 Z " fill="#4A138D" transform="translate(497,367)"/>
<path d="M0 0 C0.66 0.33 1.32 0.66 2 1 C1.3503125 1.5878125 1.3503125 1.5878125 0.6875 2.1875 C-1.26372658 4.28326189 -2.54845476 6.53868415 -4 9 C-6 11 -6 11 -8.625 11.125 C-9.40875 11.08375 -10.1925 11.0425 -11 11 C-11.226875 11.61875 -11.45375 12.2375 -11.6875 12.875 C-13.40554645 15.65659901 -14.90995099 16.09559541 -18 17 C-18.99 17 -19.98 17 -21 17 C-14.1430354 11.12558825 -7.31356061 5.30591652 0 0 Z " fill="#48158B" transform="translate(172,57)"/>
<path d="M0 0 C0.33 0 0.66 0 1 0 C1.50610724 6.07328688 0.04157942 9.77228537 -3 15 C-3.66 15 -4.32 15 -5 15 C-5.66 18.96 -6.32 22.92 -7 27 C-7.99 27 -8.98 27 -10 27 C-9.360541 21.56021867 -7.57252224 16.86007112 -5.5625 11.8125 C-5.24990234 11.00619141 -4.93730469 10.19988281 -4.61523438 9.36914062 C-3.27453458 5.9592847 -2.04519188 3.06778782 0 0 Z " fill="#3B0E74" transform="translate(38,232)"/>
<path d="M0 0 C0.81045786 2.33567861 1.11353595 3.62787683 0.38256836 6.02368164 C0.03846924 6.72871826 -0.30562988 7.43375488 -0.66015625 8.16015625 C-1.22875366 9.34387817 -1.22875366 9.34387817 -1.80883789 10.55151367 C-2.42940063 11.7944519 -2.42940063 11.7944519 -3.0625 13.0625 C-3.4742749 13.90852783 -3.8860498 14.75455566 -4.31030273 15.6262207 C-7.36215379 21.84952157 -10.55328541 27.98514513 -14 34 C-14.671875 32.33203125 -14.671875 32.33203125 -15 30 C-13.890625 27.44921875 -13.890625 27.44921875 -12.25 24.6875 C-9.85870553 20.53015778 -7.8627232 16.4239676 -6 12 C-4.03641762 7.98150583 -2.02372073 3.98849813 0 0 Z " fill="#3E1177" transform="translate(54,198)"/>
<path d="M0 0 C0.95942128 2.57030146 1.09171193 3.73534559 0.1796875 6.3671875 C-3.77088966 13.96081187 -3.77088966 13.96081187 -6.625 17.25 C-9.13521247 19.92169514 -9.13521247 19.92169514 -10.625 23.3125 C-12 26 -12 26 -15 27 C-11.57205754 17.3394349 -5.39277975 8.6578871 0 0 Z " fill="#3E127C" transform="translate(70,171)"/>
<path d="M0 0 C1.65 0 3.3 0 5 0 C4.01 1.485 4.01 1.485 3 3 C2.34 3 1.68 3 1 3 C0.80277344 3.55171875 0.60554688 4.1034375 0.40234375 4.671875 C-1.58056395 7.96383319 -4.41292856 9.97578672 -7.4375 12.25 C-8.02337891 12.70890625 -8.60925781 13.1678125 -9.21289062 13.640625 C-13.61707124 17 -13.61707124 17 -17 17 C-17 16.01 -17 15.02 -17 14 C-15.68 14 -14.36 14 -13 14 C-13 13.01 -13 12.02 -13 11 C-10.69 10.34 -8.38 9.68 -6 9 C-6 7.68 -6 6.36 -6 5 C-4.35 5 -2.7 5 -1 5 C-0.67 3.35 -0.34 1.7 0 0 Z " fill="#41147C" transform="translate(460,433)"/>
<path d="M0 0 C0.33 0.66 0.66 1.32 1 2 C0.05284166 4.73858882 -0.96191963 7.3858039 -2.0625 10.0625 C-4.65961987 16.53917054 -7.13757273 23.03657129 -9.4375 29.625 C-9.6960376 30.36500244 -9.9545752 31.10500488 -10.22094727 31.86743164 C-10.81638289 33.5774477 -11.40858807 35.28858818 -12 37 C-13.30597864 33.32914112 -12.69989738 30.72508777 -11.75 27 C-11.49734375 25.96875 -11.2446875 24.9375 -10.984375 23.875 C-10.00472429 21.01379792 -8.82145613 19.36789297 -7 17 C-6.11722733 14.63104898 -6.11722733 14.63104898 -5.5 12.125 C-2.91529774 2.91529774 -2.91529774 2.91529774 0 0 Z " fill="#390E70" transform="translate(219,319)"/>
<path d="M0 0 C2.85572721 0.98473352 3.97012206 1.9583843 5.75 4.4375 C8.69717536 12.83694976 7.21429507 21.83860058 4 30 C2.39453125 32.31640625 2.39453125 32.31640625 1 34 C2 25.42857143 2 25.42857143 3 22 C3.66 22 4.32 22 5 22 C4.91254425 19.60250616 4.80562925 17.20851779 4.6875 14.8125 C4.66494141 14.13896484 4.64238281 13.46542969 4.61914062 12.77148438 C4.38268263 8.36476727 3.55070019 5.58671723 1 2 C0.67 1.34 0.34 0.68 0 0 Z " fill="#350D69" transform="translate(285,118)"/>
<path d="M0 0 C0 0.99 0 1.98 0 3 C-0.66 3.66 -1.32 4.32 -2 5 C-2.226875 5.7425 -2.45375 6.485 -2.6875 7.25 C-5.35789276 12.84510865 -10.79643499 15.9390794 -16 19 C-16.33 19.66 -16.66 20.32 -17 21 C-17.66 20.67 -18.32 20.34 -19 20 C-13.08218389 12.91529057 -6.56858667 6.47151396 0 0 Z " fill="#461488" transform="translate(135,89)"/>
<path d="M0 0 C1.25541557 3.76624671 0.37061958 5.37188934 -1 9 C0.14597656 8.72285156 1.29195312 8.44570312 2.47265625 8.16015625 C4.0025644 7.79410461 5.53251457 7.42822853 7.0625 7.0625 C7.81466797 6.88009766 8.56683594 6.69769531 9.34179688 6.50976562 C13.88379101 5.42833845 18.36729123 4.58447189 23 4 C20.14585217 5.90276522 18.1305318 6.65607642 14.875 7.5625 C11.65831713 8.27737882 11.65831713 8.27737882 9 10 C6.98405418 10.23427778 4.961526 10.41336124 2.9375 10.5625 C1.28041016 10.68818359 1.28041016 10.68818359 -0.41015625 10.81640625 C-1.26480469 10.87699219 -2.11945313 10.93757812 -3 11 C-2.25 3.375 -2.25 3.375 0 0 Z " fill="#370E6B" transform="translate(250,243)"/>
<path d="M0 0 C6.13712767 6.13712767 8 20.44788766 8 29 C7.34 29 6.68 29 6 29 C5.1276588 26.00519083 4.89170234 23.36424089 4.9375 20.25 C4.94652344 19.45078125 4.95554687 18.6515625 4.96484375 17.828125 C4.97644531 17.22484375 4.98804688 16.6215625 5 16 C4.34 16 3.68 16 3 16 C0.54970669 10.28264895 -0.33266291 6.20970773 0 0 Z " fill="#3F0F78" transform="translate(334,318)"/>
<path d="M0 0 C0.66 0 1.32 0 2 0 C1.1875 1.9375 1.1875 1.9375 0 4 C-0.99 4.33 -1.98 4.66 -3 5 C-3.70151152 6.3153341 -4.36525925 7.65117592 -5 9 C-5.9793879 10.02019573 -6.97895449 11.02149805 -8 12 C-8.99 13.485 -8.99 13.485 -10 15 C-10.66 15 -11.32 15 -12 15 C-12.33 15.99 -12.66 16.98 -13 18 C-13.66 18 -14.32 18 -15 18 C-15 18.66 -15 19.32 -15 20 C-15.66 19.67 -16.32 19.34 -17 19 C-8.24718398 6.51501877 -8.24718398 6.51501877 -3 2 C-2.01 2 -1.02 2 0 2 C0 1.34 0 0.68 0 0 Z " fill="#431283" transform="translate(228,123)"/>
<path d="M0 0 C4.98689868 7.48034802 4.28013213 16.63920724 4.1875 25.3125 C4.18685547 26.47845703 4.18621094 27.64441406 4.18554688 28.84570312 C4.13712835 38.19047824 4.13712835 38.19047824 3 42 C2.34 42 1.68 42 1 42 C1.0721875 41.41476563 1.144375 40.82953125 1.21875 40.2265625 C2.5186922 28.20209715 3.23868766 15.74024277 0 4 C0 2.68 0 1.36 0 0 Z " fill="#3C1171" transform="translate(375,105)"/>
<path d="M0 0 C-2.01940502 2.01940502 -3.20861851 2.62767488 -5.80859375 3.65625 C-6.55560547 3.95660156 -7.30261719 4.25695312 -8.07226562 4.56640625 C-8.85279297 4.87449219 -9.63332031 5.18257813 -10.4375 5.5 C-11.97908464 6.11151656 -13.51949986 6.72599138 -15.05859375 7.34375 C-15.74236084 7.61380859 -16.42612793 7.88386719 -17.13061523 8.16210938 C-19.26427558 9.05639444 -19.26427558 9.05639444 -22 11 C-22.99 10.67 -23.98 10.34 -25 10 C-22.44667458 6.95906035 -19.65771618 5.86741601 -16 4.4375 C-4.30651649 -0.16251006 -4.30651649 -0.16251006 0 0 Z " fill="#3C0F6E" transform="translate(242,75)"/>
<path d="M0 0 C0.33 0 0.66 0 1 0 C1.84225946 11.30031446 -0.67598898 22.00421383 -3 33 C-3.33 33 -3.66 33 -4 33 C-3.62435349 21.69174459 -2.58700043 11.03136034 0 0 Z " fill="#3B0F71" transform="translate(13,312)"/>
<path d="M0 0 C0 5.91550777 -2.26885322 9.59046289 -6 14 C-6.495 14.886875 -6.99 15.77375 -7.5 16.6875 C-9.12455247 19.19201839 -10.24968783 19.95677814 -13 21 C-11.38265784 16.23115111 -8.74802081 12.37633749 -5.9375 8.25 C-5.47794922 7.56550781 -5.01839844 6.88101563 -4.54492188 6.17578125 C-1.16919168 1.16919168 -1.16919168 1.16919168 0 0 Z " fill="#451380" transform="translate(84,150)"/>
<path d="M0 0 C1.13240398 3.39721193 0.91006508 3.91311929 -0.36328125 7.08984375 C-0.67330078 7.87423828 -0.98332031 8.65863281 -1.30273438 9.46679688 C-1.80256836 10.68979492 -1.80256836 10.68979492 -2.3125 11.9375 C-2.63412109 12.74896484 -2.95574219 13.56042969 -3.28710938 14.39648438 C-4.73071179 18.00993684 -6.22408936 21.53539079 -8 25 C-9.37116242 22.25767515 -8.75013248 20.67876187 -8.1875 17.6875 C-8.01605469 16.74261719 -7.84460938 15.79773438 -7.66796875 14.82421875 C-7.01066733 12.04510221 -6.22751603 9.57823999 -5 7 C-4.34 6.67 -3.68 6.34 -3 6 C-1.95191959 4.02477154 -0.9479589 2.02518491 0 0 Z " fill="#3A0D73" transform="translate(260,218)"/>
<path d="M0 0 C3.15911453 0.35101273 4.0081584 1.00909079 6.1875 3.4375 C9.14116979 6.12862136 9.94597187 6.36188029 13.6875 6.9375 C16.0390625 7.33203125 16.0390625 7.33203125 18 8 C19.5625 11.125 19.5625 11.125 20 14 C15.37490124 12.68246445 11.9898123 10.84885893 8.125 8 C7.15820312 7.29875 6.19140625 6.5975 5.1953125 5.875 C4.47085938 5.25625 3.74640625 4.6375 3 4 C3 3.34 3 2.68 3 2 C2.01 1.67 1.02 1.34 0 1 C0 0.67 0 0.34 0 0 Z " fill="#44157D" transform="translate(36,459)"/>
<path d="M0 0 C0.33 0.99 0.66 1.98 1 3 C-0.31306433 5.0133653 -1.64837492 7.01231606 -3 9 C-3.78215588 11.7282504 -3.78215588 11.7282504 -4 14 C-4.66 14 -5.32 14 -6 14 C-6.33 16.31 -6.66 18.62 -7 21 C-7.66 21 -8.32 21 -9 21 C-9.33 21.66 -9.66 22.32 -10 23 C-8.98790651 14.70083338 -5.25435818 6.50539584 0 0 Z " fill="#3F127A" transform="translate(129,257)"/>
<path d="M0 0 C0.33 0 0.66 0 1 0 C1.80709833 10.29050369 -1.38984066 20.1045319 -8 28 C-8.33 27.34 -8.66 26.68 -9 26 C-8.1351574 23.50582935 -7.21253913 21.11473714 -6.1875 18.6875 C-5.91357422 18.02298828 -5.63964844 17.35847656 -5.35742188 16.67382812 C-4.19438294 13.85408624 -3.0169276 11.04046666 -1.83984375 8.2265625 C-0.81839973 5.51854813 -0.3990215 2.85965405 0 0 Z " fill="#3B106F" transform="translate(375,147)"/>
<path d="M0 0 C0.66 0 1.32 0 2 0 C0.50869275 4.48229987 -1.98135827 7.89693926 -4.875 11.5625 C-5.30941406 12.12646484 -5.74382812 12.69042969 -6.19140625 13.27148438 C-8.61911452 16.38813688 -11.13745394 19.2772527 -14 22 C-14 20.02 -14 18.04 -14 16 C-12.68 15.67 -11.36 15.34 -10 15 C-9.67 13.68 -9.34 12.36 -9 11 C-8.34 11.33 -7.68 11.66 -7 12 C-7 11.34 -7 10.68 -7 10 C-6.34 10 -5.68 10 -5 10 C-4.67 8.68 -4.34 7.36 -4 6 C-3.34 6 -2.68 6 -2 6 C-1.34 4.02 -0.68 2.04 0 0 Z " fill="#390E78" transform="translate(491,400)"/>
<path d="M0 0 C1.258125 -0.04125 2.51625 -0.0825 3.8125 -0.125 C4.52019531 -0.14820313 5.22789062 -0.17140625 5.95703125 -0.1953125 C8 0 8 0 11 2 C11 2.66 11 3.32 11 4 C7.7 3.67 4.4 3.34 1 3 C-0.65 7.95 -2.3 12.9 -4 18 C-5.30137039 14.09588882 -4.38226867 12.31769124 -3.125 8.4375 C-2.57199219 6.70306641 -2.57199219 6.70306641 -2.0078125 4.93359375 C-1 2 -1 2 0 0 Z " fill="#3F0F74" transform="translate(225,301)"/>
<path d="M0 0 C0.66 0 1.32 0 2 0 C0.39369175 4.24292532 -1.5768162 8.27025107 -3.625 12.3125 C-4.11226563 13.28026367 -4.11226563 13.28026367 -4.609375 14.26757812 C-5.40441956 15.84597541 -6.20195634 17.42311694 -7 19 C-7.33 19 -7.66 19 -8 19 C-7.85915204 17.20793453 -7.71216299 15.41635083 -7.5625 13.625 C-7.48128906 12.62726563 -7.40007812 11.62953125 -7.31640625 10.6015625 C-7 8 -7 8 -6 6 C-4.68 6 -3.36 6 -2 6 C-1.34 4.02 -0.68 2.04 0 0 Z " fill="#5719A4" transform="translate(106,195)"/>
<path d="M0 0 C0 0.66 0 1.32 0 2 C-1.134375 2.226875 -2.26875 2.45375 -3.4375 2.6875 C-6.91762965 3.52519492 -9.5760831 4.82398543 -12.625 6.6875 C-15.82718212 8.58550049 -16.70061854 9.01575692 -20.5625 8.8125 C-21.366875 8.544375 -22.17125 8.27625 -23 8 C-19.55770586 5.00555535 -15.77491115 3.68628213 -11.5 2.3125 C-10.83613281 2.08755859 -10.17226562 1.86261719 -9.48828125 1.63085938 C-6.11653867 0.52377024 -3.5899374 0 0 0 Z " fill="#35106E" transform="translate(256,17)"/>
<path d="M0 0 C0.87398437 0.01804687 1.74796875 0.03609375 2.6484375 0.0546875 C3.62683594 0.08949219 3.62683594 0.08949219 4.625 0.125 C-0.58991687 5.33991687 -11.1541372 4.23546842 -18.08300781 4.26123047 C-22.51422572 4.24487124 -26.94441983 4.20187873 -31.375 4.125 C-31.375 3.795 -31.375 3.465 -31.375 3.125 C-30.80056152 3.10518066 -30.22612305 3.08536133 -29.63427734 3.06494141 C-27.00576167 2.96907976 -24.37797509 2.85965126 -21.75 2.75 C-20.84636719 2.7190625 -19.94273438 2.688125 -19.01171875 2.65625 C-12.43566449 2.36824762 -6.49491487 -0.17553824 0 0 Z " fill="#320C63" transform="translate(111.375,476.875)"/>
<path d="M0 0 C0.33 0 0.66 0 1 0 C1.35428435 4.95998095 0.26814727 7.64515723 -2 12 C-2.70758326 15.2366963 -2.70758326 15.2366963 -3 18 C-3.66 18 -4.32 18 -5 18 C-5.33 19.32 -5.66 20.64 -6 22 C-6.66 22 -7.32 22 -8 22 C-5.92957946 14.39162534 -3.14169523 7.2271408 0 0 Z " fill="#41117D" transform="translate(116,366)"/>
<path d="M0 0 C0.33 0.99 0.66 1.98 1 3 C0.67 3.33 0.34 3.66 0 4 C-0.20604085 5.32781878 -0.3662959 6.66295895 -0.5 8 C-0.88888889 11.88888889 -0.88888889 11.88888889 -2 13 C-2.12375 14.134375 -2.2475 15.26875 -2.375 16.4375 C-2.58125 17.613125 -2.7875 18.78875 -3 20 C-3.99 20.66 -4.98 21.32 -6 22 C-6.21192221 16.80790596 -5.5912689 12.873261 -4 8 C-3.34 8 -2.68 8 -2 8 C-2.04125 7.236875 -2.0825 6.47375 -2.125 5.6875 C-2 3 -2 3 0 0 Z " fill="#4B1690" transform="translate(20,290)"/>
<path d="M0 0 C0.33 0 0.66 0 1 0 C0.65226572 6.63093294 0.03910346 12.053928 -3 18 C-3.33 18 -3.66 18 -4 18 C-5.30716095 12.52545464 -5.38290401 8.9286644 -2.5625 3.9375 C-1.7302975 2.61096468 -0.8834003 1.29300459 0 0 Z " fill="#601DB4" transform="translate(463,120)"/>
<path d="M0 0 C1.32 0.33 2.64 0.66 4 1 C-8.6087195 11.6081711 -8.6087195 11.6081711 -15 14 C-15.99 13.67 -16.98 13.34 -18 13 C-16.44038638 12.03697644 -14.87716775 11.07978996 -13.3125 10.125 C-12.00732422 9.32449219 -12.00732422 9.32449219 -10.67578125 8.5078125 C-8 7 -8 7 -5.21875 5.9375 C-4.4865625 5.628125 -3.754375 5.31875 -3 5 C-2.11306697 2.95894361 -2.11306697 2.95894361 -2 1 C-1.34 1.33 -0.68 1.66 0 2 C0 1.34 0 0.68 0 0 Z " fill="#350C61" transform="translate(147,458)"/>
<path d="M0 0 C0 0.66 0 1.32 0 2 C-1.65 2.33 -3.3 2.66 -5 3 C-5 3.66 -5 4.32 -5 5 C-8.49655387 7.6020866 -11.89160936 9.54997977 -16 11 C-14.51036045 7.21731979 -12.4303495 5.54510915 -9.125 3.25 C-8.26132812 2.63640625 -7.39765625 2.0228125 -6.5078125 1.390625 C-4 0 -4 0 0 0 Z " fill="#491586" transform="translate(484,364)"/>
<path d="M0 0 C0 4.36076855 -1.56550406 7.41906553 -4 11 C-10.27789474 17 -10.27789474 17 -15 17 C-11.13292074 12.50883879 -7.19204592 8.19204592 -3 4 C-1.97186389 2.68824014 -0.95915568 1.3630107 0 0 Z " fill="#400E74" transform="translate(355,191)"/>
<path d="M0 0 C3.78091617 1.34313185 6.65651916 3.02964684 9.8125 5.5 C10.60269531 6.1084375 11.39289063 6.716875 12.20703125 7.34375 C12.79871094 7.8903125 13.39039063 8.436875 14 9 C14 9.66 14 10.32 14 11 C11.69 10.67 9.38 10.34 7 10 C6.938125 9.38125 6.87625 8.7625 6.8125 8.125 C6.544375 7.42375 6.27625 6.7225 6 6 C4.7625 5.505 4.7625 5.505 3.5 5 C2.2625 4.505 2.2625 4.505 1 4 C0.1875 1.875 0.1875 1.875 0 0 Z " fill="#3E1077" transform="translate(426,27)"/>
<path d="M0 0 C1.85142719 2.77714078 2.31364854 3.88392658 2.875 7 C3.84245855 11.79009964 5.48868377 16.18181682 7.29296875 20.71484375 C8 23 8 23 7 25 C3.46209597 21.30827405 3.40884117 17.90609405 3 13 C2.34 13 1.68 13 1 13 C0.1276588 10.00519083 -0.10829766 7.36424089 -0.0625 4.25 C-0.05347656 3.45078125 -0.04445313 2.6515625 -0.03515625 1.828125 C-0.02355469 1.22484375 -0.01195312 0.6215625 0 0 Z " fill="#3B0E73" transform="translate(345,362)"/>
<path d="M0 0 C5.77231089 5.23115675 8.55347983 14.51054043 10 22 C9.67 22.99 9.34 23.98 9 25 C7.6803392 21.77371408 6.37055472 18.54350696 5.0625 15.3125 C4.68931641 14.40048828 4.31613281 13.48847656 3.93164062 12.54882812 C3.57392578 11.66259766 3.21621094 10.77636719 2.84765625 9.86328125 C2.51773682 9.05157471 2.18781738 8.23986816 1.84790039 7.40356445 C0.98227756 4.94976176 0.44826579 2.56009574 0 0 Z " fill="#3D1273" transform="translate(454,56)"/>
<path d="M0 0 C0.99 0 1.98 0 3 0 C1.83654502 6.04996591 -1.55999043 11.01791717 -5 16 C-5.33 15.34 -5.66 14.68 -6 14 C-4.36840829 9.10522486 -2.40118582 4.57368727 0 0 Z " fill="#421283" transform="translate(447,166)"/>
<path d="M0 0 C3.71368887 1.23789629 4.77354181 2.85224877 7 6 C7 6.66 7 7.32 7 8 C7.99 8.33 8.98 8.66 10 9 C12.07530387 11.92079805 13 13.37546731 13 17 C11 15.1875 11 15.1875 9 13 C9 12.01 9 11.02 9 10 C7.35 10 5.7 10 4 10 C4 8.35 4 6.7 4 5 C2.68 4.67 1.36 4.34 0 4 C0 2.68 0 1.36 0 0 Z " fill="#411379" transform="translate(440,38)"/>
<path d="M0 0 C2.34079306 2.34079306 3.56454746 4.70763221 5.125 7.625 C5.66382813 8.62789063 6.20265625 9.63078125 6.7578125 10.6640625 C7.37269531 11.82035156 7.37269531 11.82035156 8 13 C8.66 12.67 9.32 12.34 10 12 C10 13.32 10 14.64 10 16 C10.66 16.33 11.32 16.66 12 17 C11.67 18.32 11.34 19.64 11 21 C0 7.46735395 0 7.46735395 0 0 Z " fill="#37106C" transform="translate(20,432)"/>
<path d="M0 0 C1.09570312 0.00902344 2.19140625 0.01804687 3.3203125 0.02734375 C4.16335938 0.03894531 5.00640625 0.05054687 5.875 0.0625 C2.76284553 2.13726964 0.54560134 2.77314913 -3.0625 3.625 C-4.10277344 3.87378906 -5.14304688 4.12257813 -6.21484375 4.37890625 C-7.65537109 4.71728516 -7.65537109 4.71728516 -9.125 5.0625 C-10.45897509 5.39325573 -11.7926163 5.72539087 -13.125 6.0625 C-12.795 5.0725 -12.465 4.0825 -12.125 3.0625 C-10.805 3.0625 -9.485 3.0625 -8.125 3.0625 C-8.125 2.4025 -8.125 1.7425 -8.125 1.0625 C-5.36047967 -0.31976016 -3.0788637 -0.03275387 0 0 Z " fill="#421181" transform="translate(257.125,68.9375)"/>
<path d="M0 0 C-15.14285714 8 -15.14285714 8 -22 8 C-22 7.34 -22 6.68 -22 6 C-20.16809103 5.3087136 -18.33547949 4.61924952 -16.5 3.9375 C-14.70314413 3.26367905 -12.91209485 2.57429799 -11.125 1.875 C-10.155625 1.50375 -9.18625 1.1325 -8.1875 0.75 C-7.27355469 0.39421875 -6.35960937 0.0384375 -5.41796875 -0.328125 C-3 -1 -3 -1 0 0 Z " fill="#350E69" transform="translate(422,464)"/>
<path d="M0 0 C1.32 0 2.64 0 4 0 C3.67 1.32 3.34 2.64 3 4 C2.34 4 1.68 4 1 4 C0.89816406 4.56203125 0.79632813 5.1240625 0.69140625 5.703125 C-0.13648111 8.45339488 -1.43198618 10.39095874 -3.0625 12.75 C-3.61035156 13.54921875 -4.15820312 14.3484375 -4.72265625 15.171875 C-5.14417969 15.77515625 -5.56570312 16.3784375 -6 17 C-7 14 -7 14 -6.0625 11.8125 C-5.5365625 10.9153125 -5.5365625 10.9153125 -5 10 C-4.34 10 -3.68 10 -3 10 C-2.87625 9.46375 -2.7525 8.9275 -2.625 8.375 C-1.87793984 5.5361714 -0.94696636 2.77776798 0 0 Z " fill="#330C65" transform="translate(121,168)"/>
<path d="M0 0 C1.39700413 2.79400825 0.56667619 4.0999679 -0.3125 7.0625 C-1.73686605 12.01511224 -2.92600767 16.96049754 -4 22 C-4.33 22 -4.66 22 -5 22 C-5.34894206 14.90484472 -4.49312142 8.69025703 -2 2 C-1.34 1.34 -0.68 0.68 0 0 Z " fill="#350D69" transform="translate(79,260)"/>
<path d="M0 0 C-2.28929053 1.17154293 -4.58118362 2.33738074 -6.875 3.5 C-7.52597656 3.83386719 -8.17695313 4.16773438 -8.84765625 4.51171875 C-13.7734375 7 -13.7734375 7 -16 7 C-16 5.35 -16 3.7 -16 2 C-13.03 2.495 -13.03 2.495 -10 3 C-10 2.34 -10 1.68 -10 1 C-3.375 -1.125 -3.375 -1.125 0 0 Z " fill="#3D0E74" transform="translate(361,256)"/>
<path d="M0 0 C0 0.99 0 1.98 0 3 C-0.99 3.33 -1.98 3.66 -3 4 C-3.33 4.99 -3.66 5.98 -4 7 C-5.87617698 8.84499398 -7.92737609 10.3683599 -10 12 C-10.66 11.67 -11.32 11.34 -12 11 C-11.34 10.443125 -10.68 9.88625 -10 9.3125 C-7.74507789 7.15937692 -7.74507789 7.15937692 -7.75 4.25 C-7.8325 3.5075 -7.915 2.765 -8 2 C-6.2984375 1.7834375 -6.2984375 1.7834375 -4.5625 1.5625 C-1.19222799 1.38828522 -1.19222799 1.38828522 0 0 Z " fill="#400F7B" transform="translate(410,218)"/>
<path d="M0 0 C0.33 0 0.66 0 1 0 C1.37810643 3.30843123 1.15283119 4.75311885 -0.625 7.625 C-3.22106748 10.22106748 -5.64652195 11.55190721 -9 13 C-7.51222697 9.74035658 -5.64333184 7.06830707 -3.4375 4.25 C-2.81746094 3.45078125 -2.19742188 2.6515625 -1.55859375 1.828125 C-0.78708984 0.92320313 -0.78708984 0.92320313 0 0 Z " fill="#47158C" transform="translate(105,122)"/>
<path d="M0 0 C1.91385532 2.87078299 2.96432952 5.33411656 4.125 8.5625 C4.47820312 9.53316406 4.83140625 10.50382812 5.1953125 11.50390625 C6 14 6 14 6 16 C4.68 16 3.36 16 2 16 C0.80911014 10.61972975 -0.2919519 5.54708616 0 0 Z " fill="#421284" transform="translate(68,384)"/>
<path d="M0 0 C0.86625 1.11375 0.86625 1.11375 1.75 2.25 C3.88759126 4.96954275 3.88759126 4.96954275 6.125 7.0625 C7.99672532 8.99661617 9.1019367 10.46909434 10 13 C9.67 13.99 9.34 14.98 9 16 C0 4.26213592 0 4.26213592 0 0 Z " fill="#3B107B" transform="translate(289,436)"/>
<path d="M0 0 C3.58155513 1.65302544 6.72328557 3.81552372 10 6 C11.3191582 6.69429379 12.64649406 7.37530495 14 8 C11.5976699 8.84566329 10.37572815 9.12831471 7.9296875 8.29296875 C7.25164062 7.92816406 6.57359375 7.56335938 5.875 7.1875 C5.19179688 6.83042969 4.50859375 6.47335937 3.8046875 6.10546875 C2 5 2 5 0 3 C0 2.01 0 1.02 0 0 Z " fill="#3E1478" transform="translate(365,407)"/>
<path d="M0 0 C0.66 0 1.32 0 2 0 C2 1.98 2 3.96 2 6 C1.34 6 0.68 6 0 6 C0.061875 7.1446875 0.061875 7.1446875 0.125 8.3125 C0 11 0 11 -2 14 C-2.66 14 -3.32 14 -4 14 C-3.36843005 8.94744036 -1.86540627 4.70406799 0 0 Z " fill="#451483" transform="translate(121,352)"/>
<path d="M0 0 C6.30267439 0.36776168 11.33251843 1.16625922 17 4 C16.67 4.99 16.34 5.98 16 7 C16 6.34 16 5.68 16 5 C15.26394531 4.97421875 14.52789062 4.9484375 13.76953125 4.921875 C4.07732865 4.35852373 4.07732865 4.35852373 0 0 Z " fill="#44127A" transform="translate(123,300)"/>
<path d="M0 0 C-2.97 4.95 -2.97 4.95 -6 10 C-6.66 9.67 -7.32 9.34 -8 9 C-7.39664218 2.60440714 -7.39664218 2.60440714 -5.6875 0 C-4 -1 -4 -1 0 0 Z " fill="#4D1496" transform="translate(441,183)"/>
<path d="M0 0 C-0.66 0 -1.32 0 -2 0 C-2.33 0.99 -2.66 1.98 -3 3 C-4.92578125 3.984375 -4.92578125 3.984375 -7.3125 4.75 C-8.09238281 5.01296875 -8.87226563 5.2759375 -9.67578125 5.546875 C-12.16921091 6.03298902 -13.6181897 5.80665429 -16 5 C-14.09118566 3.96455826 -12.17260796 2.94709915 -10.25 1.9375 C-8.64898437 1.08478516 -8.64898437 1.08478516 -7.015625 0.21484375 C-3.97406463 -1.01044806 -2.95106435 -1.25348607 0 0 Z " fill="#391173" transform="translate(233,26)"/>
<path d="M0 0 C1.63001953 0.01353516 1.63001953 0.01353516 3.29296875 0.02734375 C4.12441406 0.03894531 4.95585937 0.05054687 5.8125 0.0625 C5.4825 1.0525 5.1525 2.0425 4.8125 3.0625 C-0.7975 3.0625 -6.4075 3.0625 -12.1875 3.0625 C-7.9047612 0.2073408 -5.04291942 -0.05422494 0 0 Z " fill="#4A1490" transform="translate(252.1875,114.9375)"/>
<path d="M0 0 C0.66 0.33 1.32 0.66 2 1 C-0.58216609 5.30361015 -2.63026889 7.59664789 -7 10 C-8.36984198 11.29579647 -9.7151049 12.61992749 -11 14 C-11.66 13.67 -12.32 13.34 -13 13 C-8.71 8.71 -4.42 4.42 0 0 Z " fill="#3B1070" transform="translate(466,375)"/>
<path d="M0 0 C0.33 0.99 0.66 1.98 1 3 C1.99 3 2.98 3 4 3 C4 3.99 4 4.98 4 6 C3.35933594 5.79503906 2.71867187 5.59007813 2.05859375 5.37890625 C-2.97287851 3.81172636 -7.75988003 2.56957826 -13 2 C-13 1.67 -13 1.34 -13 1 C-6.565 0.505 -6.565 0.505 0 0 Z " fill="#471184" transform="translate(339,66)"/>
<path d="M0 0 C0.66 0 1.32 0 2 0 C0.6744419 3.62276315 -0.94346955 6.63505348 -3.125 9.8125 C-3.66382813 10.60269531 -4.20265625 11.39289063 -4.7578125 12.20703125 C-5.37269531 13.09455078 -5.37269531 13.09455078 -6 14 C-6 11.20215289 -5.62804225 9.0209322 -5 6.3125 C-4.814375 5.50425781 -4.62875 4.69601562 -4.4375 3.86328125 C-4.2209375 2.94095703 -4.2209375 2.94095703 -4 2 C-3.01 2.33 -2.02 2.66 -1 3 C-0.67 2.01 -0.34 1.02 0 0 Z " fill="#3D0F77" transform="translate(176,423)"/>
<path d="M0 0 C1.21236328 0.01353516 1.21236328 0.01353516 2.44921875 0.02734375 C3.37154297 0.04474609 3.37154297 0.04474609 4.3125 0.0625 C2.9925 1.0525 1.6725 2.0425 0.3125 3.0625 C1.6325 4.0525 2.9525 5.0425 4.3125 6.0625 C2.6868193 5.75356068 1.06197252 5.4402305 -0.5625 5.125 C-1.46742188 4.95097656 -2.37234375 4.77695312 -3.3046875 4.59765625 C-5.6875 4.0625 -5.6875 4.0625 -7.6875 3.0625 C-7.6875 2.4025 -7.6875 1.7425 -7.6875 1.0625 C-4.80538698 0.10179566 -2.98899956 -0.04331883 0 0 Z " fill="#3D0C71" transform="translate(299.6875,275.9375)"/>
<path d="M0 0 C1.48828125 1.08203125 1.48828125 1.08203125 3 3 C3.29296875 6.13671875 3.29296875 6.13671875 3.1875 9.6875 C3.16042969 10.86699219 3.13335937 12.04648437 3.10546875 13.26171875 C3.07066406 14.16535156 3.03585937 15.06898438 3 16 C0.30717525 11.96076287 -0.13300939 9.04463848 -0.0625 4.25 C-0.05347656 3.45078125 -0.04445313 2.6515625 -0.03515625 1.828125 C-0.02355469 1.22484375 -0.01195312 0.6215625 0 0 Z " fill="#4B1493" transform="translate(272,381)"/>
<path d="M0 0 C0.66 0 1.32 0 2 0 C0.60061654 6.29722557 -1.49289691 12.06084316 -4 18 C-5.9315196 12.2054412 -2.12317212 5.50094594 0 0 Z " fill="#3C0D70" transform="translate(199,368)"/>
<path d="M0 0 C-5.85797948 2.86390108 -11.57409836 4.0122936 -18 5 C-18 4.01 -18 3.02 -18 2 C-17.15695312 1.86722656 -16.31390625 1.73445313 -15.4453125 1.59765625 C-14.34960938 1.42105469 -13.25390625 1.24445313 -12.125 1.0625 C-10.48917969 0.80146484 -10.48917969 0.80146484 -8.8203125 0.53515625 C-2.32466063 -0.69739819 -2.32466063 -0.69739819 0 0 Z " fill="#3B0E70" transform="translate(332,269)"/>
<path d="M0 0 C1.07310858 3.27185553 0.89263102 5.42947592 0.0625 8.75 C-0.13214844 9.54921875 -0.32679688 10.3484375 -0.52734375 11.171875 C-0.76130859 12.07679688 -0.76130859 12.07679688 -1 13 C-1.99 13 -2.98 13 -4 13 C-4 13.66 -4 14.32 -4 15 C-4.66 15 -5.32 15 -6 15 C-4.40109514 9.80355921 -2.25861997 4.93387858 0 0 Z " fill="#381177" transform="translate(184,201)"/>
<path d="M0 0 C0.6875 1.75 0.6875 1.75 1 4 C-0.25 5.875 -0.25 5.875 -2 8 C-2.7115625 9.546875 -2.7115625 9.546875 -3.4375 11.125 C-5.06234287 14.11471089 -5.85564013 14.91573797 -9 16 C-7.66414626 11.99243877 -5.65836661 9.00249087 -3.17578125 5.6484375 C-1.8939504 3.85131916 -0.8888731 2.02016614 0 0 Z " fill="#3E1177" transform="translate(365,175)"/>
<path d="M0 0 C0.66 0.33 1.32 0.66 2 1 C1.34309381 4.78239671 0.279869 8.21841526 -1.0625 11.8125 C-1.42472656 12.78832031 -1.78695313 13.76414063 -2.16015625 14.76953125 C-2.43730469 15.50558594 -2.71445312 16.24164063 -3 17 C-4.3582089 13.26039816 -3.62928896 10.59470752 -2.625 6.8125 C-2.34914063 5.74644531 -2.07328125 4.68039063 -1.7890625 3.58203125 C-1 1 -1 1 0 0 Z " fill="#390E70" transform="translate(284,152)"/>
<path d="M0 0 C1 2 1 2 0.375 4 C-1 6 -1 6 -3.25 6.875 C-7.12683859 8.46097942 -9.14939702 10.95051774 -12 14 C-12.66 13.67 -13.32 13.34 -14 13 C-12.71451591 11.66070495 -11.42141845 10.32871357 -10.125 9 C-9.04605469 7.88625 -9.04605469 7.88625 -7.9453125 6.75 C-6 5 -6 5 -4 5 C-4 4.34 -4 3.68 -4 3 C-2 1.375 -2 1.375 0 0 Z " fill="#3B0E71" transform="translate(150,75)"/>
<path d="M0 0 C1.32 0.33 2.64 0.66 4 1 C4.33 2.32 4.66 3.64 5 5 C6.32 4.67 7.64 4.34 9 4 C9.66 6.31 10.32 8.62 11 11 C7.584241 9.55661511 5.63973737 7.75105832 3.25 4.9375 C2.63640625 4.22464844 2.0228125 3.51179688 1.390625 2.77734375 C0 1 0 1 0 0 Z " fill="#3E1178" transform="translate(299,452)"/>
<path d="M0 0 C0.33 0 0.66 0 1 0 C1.25028811 1.58013217 1.47440946 3.16442306 1.6875 4.75 C1.81511719 5.63171875 1.94273438 6.5134375 2.07421875 7.421875 C1.98321474 10.58306697 1.19290886 11.77062948 -1 14 C-1.66 14 -2.32 14 -3 14 C-2.01 9.38 -1.02 4.76 0 0 Z " fill="#601EBD" transform="translate(28,259)"/>
<path d="M0 0 C0.33 0 0.66 0 1 0 C1.50610724 6.07328688 0.04157942 9.77228537 -3 15 C-4.33495946 12.33008107 -3.77924641 10.9616317 -3.1875 8.0625 C-2.93033203 6.74958984 -2.93033203 6.74958984 -2.66796875 5.41015625 C-2 3 -2 3 0 0 Z " fill="#4C1994" transform="translate(38,232)"/>
<path d="M0 0 C0.33 0 0.66 0 1 0 C0.88570603 1.77155654 0.75816963 3.54226229 0.625 5.3125 C0.55539063 6.29863281 0.48578125 7.28476562 0.4140625 8.30078125 C0 11 0 11 -2 14 C-2.99 14 -3.98 14 -5 14 C-3.46527032 9.27775484 -1.76054874 4.64144669 0 0 Z " fill="#47147F" transform="translate(107,388)"/>
<path d="M0 0 C3 2 3 2 3.37231445 3.84765625 C3.3693335 4.57855469 3.36635254 5.30945313 3.36328125 6.0625 C3.36263672 6.85914063 3.36199219 7.65578125 3.36132812 8.4765625 C3.34521484 9.30929687 3.32910156 10.14203125 3.3125 11 C3.31572266 11.83273437 3.31894531 12.66546875 3.32226562 13.5234375 C3.26700255 19.73299745 3.26700255 19.73299745 1 22 C1.01160156 20.83082031 1.02320313 19.66164063 1.03515625 18.45703125 C1.04453913 16.90885577 1.0536388 15.36067855 1.0625 13.8125 C1.07087891 13.04357422 1.07925781 12.27464844 1.08789062 11.48242188 C1.10491934 7.51473211 0.98604115 3.87428766 0 0 Z " fill="#3C0977" transform="translate(497,367)"/>
<path d="M0 0 C1.19297098 3.57891295 0.69377582 4.98092113 -0.3125 8.5625 C-0.57675781 9.53316406 -0.84101563 10.50382813 -1.11328125 11.50390625 C-2 14 -2 14 -4 16 C-5.16161779 13.13421241 -4.9946154 11.98369837 -4.00390625 8.984375 C-3.52824219 7.91703125 -3.05257813 6.8496875 -2.5625 5.75 C-2.08941406 4.67234375 -1.61632812 3.5946875 -1.12890625 2.484375 C-0.75636719 1.66453125 -0.38382812 0.8446875 0 0 Z " fill="#3E0E74" transform="translate(462,131)"/>
<path d="M0 0 C1.85546875 0.1640625 1.85546875 0.1640625 4 1 C5.30078125 3.3984375 5.30078125 3.3984375 6.3125 6.375 C6.65925781 7.35210937 7.00601562 8.32921875 7.36328125 9.3359375 C8 12 8 12 7 15 C6.32880451 13.5437455 5.66318193 12.08492133 5 10.625 C4.62875 9.81289062 4.2575 9.00078125 3.875 8.1640625 C3 6 3 6 3 4 C2.34 4 1.68 4 1 4 C0.67 2.68 0.34 1.36 0 0 Z " fill="#3A126D" transform="translate(367,89)"/>
<path d="M0 0 C0 0.66 0 1.32 0 2 C-2.31 3.32 -4.62 4.64 -7 6 C-7 6.66 -7 7.32 -7 8 C-9.64 8 -12.28 8 -15 8 C-11.86959828 5.47159861 -8.60681461 3.76503694 -5 2 C-2 0 -2 0 0 0 Z " fill="#3D107A" transform="translate(316,228)"/>
<path d="M0 0 C0 3.96018245 -1.18721244 6.5039097 -3 10 C-5.1875 10.9375 -5.1875 10.9375 -7 11 C-5.5140084 6.40693504 -3.14985318 3.56430755 0 0 Z " fill="#421480" transform="translate(95,135)"/>
<path d="M0 0 C1.37095624 3.69037278 0.60010967 5.70883835 -0.9375 9.25 C-1.31777344 10.14203125 -1.69804688 11.0340625 -2.08984375 11.953125 C-2.39019531 12.62859375 -2.69054687 13.3040625 -3 14 C-4.94566951 10.52452927 -5.07637127 8.87493656 -4 5 C-3.01 5 -2.02 5 -1 5 C-0.67 3.35 -0.34 1.7 0 0 Z " fill="#441483" transform="translate(89,231)"/>
<path d="M0 0 C0.66 0.33 1.32 0.66 2 1 C-0.05233685 3.2477975 -1.00667261 4.0022242 -4 5 C-4.680625 5.99 -4.680625 5.99 -5.375 7 C-7.4240915 9.52195876 -8.84230107 9.65862714 -12 10 C-12 9.34 -12 8.68 -12 8 C-9.83436853 6.10897309 -7.39546951 4.58538335 -5 3 C-4.071875 2.38125 -3.14375 1.7625 -2.1875 1.125 C-1.465625 0.75375 -0.74375 0.3825 0 0 Z " fill="#360F72" transform="translate(187,47)"/>
<path d="M0 0 C0.99 0 1.98 0 3 0 C3.33 4.95 3.66 9.9 4 15 C1.81257986 11.7188698 1.45557194 9.66915644 0.875 5.8125 C0.70742188 4.72582031 0.53984375 3.63914062 0.3671875 2.51953125 C0.24601562 1.68808594 0.12484375 0.85664063 0 0 Z " fill="#3B1072" transform="translate(262,340)"/>
<path d="M0 0 C0 0.66 0 1.32 0 2 C-2.5614657 4.29648649 -3.47967572 5 -7 5 C-7.33 5.99 -7.66 6.98 -8 8 C-8.99 8 -9.98 8 -11 8 C-9.83630874 4.50892621 -9.11026462 4.14777237 -6.0625 2.3125 C-5.35222656 1.87550781 -4.64195312 1.43851563 -3.91015625 0.98828125 C-2 0 -2 0 0 0 Z " fill="#3F127A" transform="translate(143,248)"/>
<path d="M0 0 C2.89907942 4.34861913 3.11376629 6.39583887 3.0625 11.625 C3.05347656 12.81351563 3.04445313 14.00203125 3.03515625 15.2265625 C3.02355469 16.14179687 3.01195312 17.05703125 3 18 C2.67 18 2.34 18 2 18 C2 15.03 2 12.06 2 9 C1.34 9 0.68 9 0 9 C0 6.03 0 3.06 0 0 Z " fill="#5D1EAD" transform="translate(461,76)"/>
<path d="M0 0 C-5.36439644 2.68219822 -9.01006953 3.3152595 -15 3 C-12.41464321 1.27642881 -10.96188386 0.55264982 -8.0625 -0.1875 C-7.39347656 -0.36667969 -6.72445313 -0.54585937 -6.03515625 -0.73046875 C-3.75319112 -1.03268678 -2.17973341 -0.68756692 0 0 Z " fill="#441283" transform="translate(271,14)"/>
<path d="M0 0 C0.33 0.66 0.66 1.32 1 2 C-0.65 3.98 -2.3 5.96 -4 8 C-5.0625 6.1875 -5.0625 6.1875 -6 4 C-5.67 3.01 -5.34 2.02 -5 1 C-3.35 0.67 -1.7 0.34 0 0 Z " fill="#4C168D" transform="translate(432,193)"/>
<path d="M0 0 C-1.3697164 3.99500618 -3.25722422 6.80009492 -6 10 C-6.25 6.6875 -6.25 6.6875 -6 3 C-3.96080228 0.89282902 -2.95416573 0 0 0 Z " fill="#45157C" transform="translate(114,185)"/>
<path d="M0 0 C0.99 0.33 1.98 0.66 3 1 C1.40377344 2.03320481 -0.20229106 3.05122429 -1.8125 4.0625 C-3.15248047 4.91521484 -3.15248047 4.91521484 -4.51953125 5.78515625 C-7 7 -7 7 -10 6 C-9.67 5.01 -9.34 4.02 -9 3 C-5.5625 1.875 -5.5625 1.875 -2 1 C-1.34 0.67 -0.68 0.34 0 0 Z " fill="#3B0F72" transform="translate(214,86)"/>
<path d="M0 0 C6 9 6 9 6 12 C5.34 12 4.68 12 4 12 C3.34 10.35 2.68 8.7 2 7 C1.34 7 0.68 7 0 7 C0 4.69 0 2.38 0 0 Z " fill="#3E0D77" transform="translate(353,387)"/>
<path d="M0 0 C1.28497537 3.85492611 0.4052209 5.40346836 -0.9375 9.1875 C-1.31777344 10.27417969 -1.69804688 11.36085938 -2.08984375 12.48046875 C-2.39019531 13.31191406 -2.69054687 14.14335937 -3 15 C-3.33 15 -3.66 15 -4 15 C-4.50610724 8.92671312 -3.04157942 5.22771463 0 0 Z " fill="#370E73" transform="translate(84,245)"/>
<path d="M0 0 C-3.3 2.64 -6.6 5.28 -10 8 C-10.33 6.68 -10.66 5.36 -11 4 C-10.360625 3.87625 -9.72125 3.7525 -9.0625 3.625 C-8.381875 3.41875 -7.70125 3.2125 -7 3 C-6.67 2.34 -6.34 1.68 -6 1 C-6.66 0.67 -7.32 0.34 -8 0 C-2.25 -1.125 -2.25 -1.125 0 0 Z " fill="#3C0E77" transform="translate(184,108)"/>
<path d="M0 0 C1.65 0.33 3.3 0.66 5 1 C1.267612 4.57011026 -3.0949989 5.10913442 -8 6 C-5.37801226 3.84622436 -3.35595828 2.59927826 0 2 C0 1.34 0 0.68 0 0 Z " fill="#43127A" transform="translate(124,471)"/>
<path d="M0 0 C0.66 0.33 1.32 0.66 2 1 C1.67 1.99 1.34 2.98 1 4 C0.34 4 -0.32 4 -1 4 C-1 4.66 -1 5.32 -1 6 C-6.625 9 -6.625 9 -10 9 C-5.25 5 -5.25 5 -3 5 C-2.67 4.01 -2.34 3.02 -2 2 C-1.34 2 -0.68 2 0 2 C0 1.34 0 0.68 0 0 Z " fill="#350D6C" transform="translate(335,212)"/>
<path d="M0 0 C0.66 0 1.32 0 2 0 C0.23570801 4.97209562 -2.3939166 9.43438061 -5 14 C-5.33 13.34 -5.66 12.68 -6 12 C-4.78515625 9.1796875 -4.78515625 9.1796875 -3.0625 5.875 C-2.49660156 4.77929688 -1.93070312 3.68359375 -1.34765625 2.5546875 C-0.90292969 1.71164063 -0.45820312 0.86859375 0 0 Z " fill="#370D69" transform="translate(106,195)"/>
<path d="M0 0 C0.66 0 1.32 0 2 0 C2.34833144 4.87664009 1.41685712 7.77050005 -1 12 C-1.33 12 -1.66 12 -2 12 C-1 3.42857143 -1 3.42857143 0 0 Z " fill="#3F1079" transform="translate(288,140)"/>
<path d="M0 0 C-1.41225926 0.67595315 -2.83002905 1.34040059 -4.25 2 C-5.43335938 2.556875 -5.43335938 2.556875 -6.640625 3.125 C-9 4 -9 4 -13 4 C-13 3.34 -13 2.68 -13 2 C-11.39935157 1.46845258 -9.79431126 0.95011647 -8.1875 0.4375 C-7.29417969 0.14746094 -6.40085937 -0.14257812 -5.48046875 -0.44140625 C-3 -1 -3 -1 0 0 Z " fill="#3D0D74" transform="translate(345,264)"/>
<path d="M0 0 C1.25541557 3.76624671 0.37061958 5.37188934 -1 9 C-0.01 9.33 0.98 9.66 2 10 C0.35 10.33 -1.3 10.66 -3 11 C-2.25 3.375 -2.25 3.375 0 0 Z " fill="#3F0E7A" transform="translate(250,243)"/>
<path d="M0 0 C0.95465783 2.16967689 1.14401212 3.56328793 0.3984375 5.82421875 C-0.35870385 7.5684743 -1.17609198 9.28627131 -2 11 C-2.33 11 -2.66 11 -3 11 C-3.36923077 3.49230769 -3.36923077 3.49230769 -1.5 1 C-1.005 0.67 -0.51 0.34 0 0 Z " fill="#3F0E7B" transform="translate(271,189)"/>
<path d="M0 0 C-0.125 1.8125 -0.125 1.8125 -1 4 C-4.20883825 5.95320589 -6.2205439 7 -10 7 C-8.71372289 5.82739389 -7.42080217 4.6620717 -6.125 3.5 C-5.04605469 2.52546875 -5.04605469 2.52546875 -3.9453125 1.53125 C-2 0 -2 0 0 0 Z " fill="#361077" transform="translate(161,67)"/>
<path d="M0 0 C-3.68964734 2.45976489 -5.27428479 3.12465307 -9.625 3.0625 C-10.85089844 3.04896484 -10.85089844 3.04896484 -12.1015625 3.03515625 C-13.04128906 3.01775391 -13.04128906 3.01775391 -14 3 C-9.25294723 -0.16470185 -5.68228705 -0.10927475 0 0 Z " fill="#3E1178" transform="translate(285,10)"/>
<path d="M0 0 C2.0625 0.4375 2.0625 0.4375 4 1 C3.67 1.66 3.34 2.32 3 3 C2.34 3 1.68 3 1 3 C1 3.66 1 4.32 1 5 C1.66 5.33 2.32 5.66 3 6 C-2.75 5.25 -2.75 5.25 -5 3 C-4.360625 2.690625 -3.72125 2.38125 -3.0625 2.0625 C-1.06389179 1.1654837 -1.06389179 1.1654837 0 0 Z " fill="#621BBB" transform="translate(70,472)"/>
<path d="M0 0 C2.475 0.99 2.475 0.99 5 2 C5 2.66 5 3.32 5 4 C5.99 4.33 6.98 4.66 8 5 C8 5.66 8 6.32 8 7 C6.68 6.67 5.36 6.34 4 6 C4 5.34 4 4.68 4 4 C2.68 3.34 1.36 2.68 0 2 C0 1.34 0 0.68 0 0 Z " fill="#40147A" transform="translate(310,285)"/>
<path d="M0 0 C0.33 1.32 0.66 2.64 1 4 C-0.75 5.5625 -0.75 5.5625 -3 7 C-5.25 6.6875 -5.25 6.6875 -7 6 C-5.6875 4.5 -5.6875 4.5 -4 3 C-3.01 3 -2.02 3 -1 3 C-0.67 2.01 -0.34 1.02 0 0 Z " fill="#5419A0" transform="translate(119,107)"/>
<path d="M0 0 C-2.125 2.0625 -2.125 2.0625 -5 4 C-8.3125 3.75 -8.3125 3.75 -11 3 C-7.48550811 -0.37391222 -4.73940561 -0.27342725 0 0 Z " fill="#4A148A" transform="translate(244,22)"/>
<path d="M0 0 C-4.51667907 3.01111938 -7.6639991 3.10067926 -13 3 C-9.25711729 -0.74288271 -5.09766283 -0.09803198 0 0 Z " fill="#401178" transform="translate(399,472)"/>
<path d="M0 0 C2.64 0 5.28 0 8 0 C8.33 0.99 8.66 1.98 9 3 C9.66 3.33 10.32 3.66 11 4 C7.0507432 3.44894091 3.65079826 2.61064629 0 1 C0 0.67 0 0.34 0 0 Z " fill="#390F6E" transform="translate(322,471)"/>
<path d="M0 0 C0.33 0.66 0.66 1.32 1 2 C1.639375 2.12375 2.27875 2.2475 2.9375 2.375 C5 3 5 3 6.25 5.0625 C6.4975 5.701875 6.745 6.34125 7 7 C4.69 6.34 2.38 5.68 0 5 C0 3.35 0 1.7 0 0 Z " fill="#53179F" transform="translate(356,397)"/>
<path d="M0 0 C0.33 0.99 0.66 1.98 1 3 C-1.97 5.475 -1.97 5.475 -5 8 C-5.66 7.67 -6.32 7.34 -7 7 C-6.25 5.0625 -6.25 5.0625 -5 3 C-2.9375 2.375 -2.9375 2.375 -1 2 C-0.67 1.34 -0.34 0.68 0 0 Z " fill="#5E1DB4" transform="translate(136,253)"/>
<path d="M0 0 C0 3.19610552 -0.54671542 4.41717626 -2 7.1875 C-2.37125 7.90292969 -2.7425 8.61835938 -3.125 9.35546875 C-3.558125 10.16951172 -3.558125 10.16951172 -4 11 C-4.66 10.67 -5.32 10.34 -6 10 C-4.6302836 6.00499382 -2.74277578 3.19990508 0 0 Z " fill="#481587" transform="translate(355,191)"/>
<path d="M0 0 C0.66 0.33 1.32 0.66 2 1 C-3.625 5.875 -3.625 5.875 -7 7 C-5.55609075 3.19333016 -3.65047197 1.73397418 0 0 Z " fill="#601DBE" transform="translate(177,56)"/>
<path d="M0 0 C0.66 0.33 1.32 0.66 2 1 C0.54550599 2.0055761 -0.91372443 3.00430435 -2.375 4 C-3.59316406 4.8353125 -3.59316406 4.8353125 -4.8359375 5.6875 C-7 7 -7 7 -9 7 C-9 6.34 -9 5.68 -9 5 C-8.34 5 -7.68 5 -7 5 C-7 4.34 -7 3.68 -7 3 C-4.69631264 1.93347808 -2.35981813 0.93578995 0 0 Z " fill="#3A1074" transform="translate(440,451)"/>
<path d="M0 0 C1.32 0.33 2.64 0.66 4 1 C4 3 4 3 2 5.125 C1.34 5.74375 0.68 6.3625 0 7 C-0.66 6.67 -1.32 6.34 -2 6 C-1.34 4.02 -0.68 2.04 0 0 Z " fill="#481287" transform="translate(157,447)"/>
<path d="M0 0 C-1.28062485 1.7074998 -2.61767557 3.37373596 -4 5 C-4.66 5 -5.32 5 -6 5 C-6.33 3.35 -6.66 1.7 -7 0 C-4.3333581 -1.33332095 -2.83319697 -0.67102033 0 0 Z " fill="#491789" transform="translate(472,427)"/>
<path d="M0 0 C0.99 0 1.98 0 3 0 C2.39301257 4.12751449 0.96189209 7.3321148 -1 11 C-2.60080151 6.99799622 -1.29279692 3.95443764 0 0 Z " fill="#390C71" transform="translate(180,412)"/>
<path d="M0 0 C0.88336837 2.4667645 1.1312406 3.63859372 0.22265625 6.140625 C-0.16019531 6.83671875 -0.54304688 7.5328125 -0.9375 8.25 C-1.31777344 8.95640625 -1.69804688 9.6628125 -2.08984375 10.390625 C-2.39019531 10.92171875 -2.69054688 11.4528125 -3 12 C-3.88336837 9.5332355 -4.1312406 8.36140628 -3.22265625 5.859375 C-2.83980469 5.16328125 -2.45695312 4.4671875 -2.0625 3.75 C-1.68222656 3.04359375 -1.30195312 2.3371875 -0.91015625 1.609375 C-0.60980469 1.07828125 -0.30945312 0.5471875 0 0 Z " fill="#340F64" transform="translate(43,220)"/>
<path d="M0 0 C0.33 0 0.66 0 1 0 C1.33 2.64 1.66 5.28 2 8 C0.68 8.33 -0.64 8.66 -2 9 C-2.25 3.375 -2.25 3.375 0 0 Z " fill="#4D1699" transform="translate(178,216)"/>
<path d="M0 0 C2 4 2 4 1.125 6.75 C0.75375 7.4925 0.3825 8.235 0 9 C-0.99 9 -1.98 9 -3 9 C-2.01 6.03 -1.02 3.06 0 0 Z " fill="#421386" transform="translate(203,158)"/>
<path d="M0 0 C0.66 0.99 1.32 1.98 2 3 C0.7260411 5.03833424 -0.61061923 7.03852126 -2 9 C-2.66 9 -3.32 9 -4 9 C-2.25 2.25 -2.25 2.25 0 0 Z " fill="#491287" transform="translate(149,134)"/>
<path d="M0 0 C0.66 0.33 1.32 0.66 2 1 C1 4 1 4 -1.9375 5.6875 C-5 7 -5 7 -7 7 C-7 6.34 -7 5.68 -7 5 C-6.34 5 -5.68 5 -5 5 C-5 4.01 -5 3.02 -5 2 C-3.35 2.33 -1.7 2.66 0 3 C0 2.01 0 1.02 0 0 Z " fill="#631BB9" transform="translate(216,82)"/>
<path d="M0 0 C3.465 1.485 3.465 1.485 7 3 C7 3.66 7 4.32 7 5 C4.69 4.67 2.38 4.34 0 4 C0 2.68 0 1.36 0 0 Z " fill="#491589" transform="translate(433,33)"/>
<path d="M0 0 C2.4375 0.375 2.4375 0.375 5 1 C5.33 1.66 5.66 2.32 6 3 C7.64142963 4.0409066 9.30712215 5.04504326 11 6 C6.70091749 6 4.62932713 4.2851319 1 2 C0.67 1.34 0.34 0.68 0 0 Z " fill="#3C1179" transform="translate(310,463)"/>
<path d="M0 0 C1 2 1 2 0.22265625 4.3828125 C-0.16019531 5.28773438 -0.54304687 6.19265625 -0.9375 7.125 C-1.31777344 8.03507812 -1.69804687 8.94515625 -2.08984375 9.8828125 C-2.39019531 10.58148438 -2.69054687 11.28015625 -3 12 C-3.33 12 -3.66 12 -4 12 C-4.39279523 7.54832067 -3.1861177 4.84756715 -1 1 C-0.67 0.67 -0.34 0.34 0 0 Z " fill="#330C67" transform="translate(219,319)"/>
<path d="M0 0 C0.66 0.33 1.32 0.66 2 1 C1.21625 1.598125 0.4325 2.19625 -0.375 2.8125 C-3.14574323 4.91085249 -3.14574323 4.91085249 -5 8 C-5.66 7.67 -6.32 7.34 -7 7 C-6.8125 5.125 -6.8125 5.125 -6 3 C-3.5 1.8125 -3.5 1.8125 -1 1 C-0.67 0.67 -0.34 0.34 0 0 Z " fill="#3C0E71" transform="translate(165,121)"/>
<path d="M0 0 C0.33 0.66 0.66 1.32 1 2 C-0.98 4.64 -2.96 7.28 -5 10 C-5.33 9.01 -5.66 8.02 -6 7 C-4.78515625 5.17578125 -4.78515625 5.17578125 -3.0625 3.3125 C-2.49660156 2.68988281 -1.93070313 2.06726563 -1.34765625 1.42578125 C-0.90292969 0.95527344 -0.45820313 0.48476563 0 0 Z " fill="#2E0957" transform="translate(168,437)"/>
<path d="M0 0 C-2.88628401 1.57554035 -5.53342384 2.46276373 -8.75 3.125 C-9.94882812 3.37636719 -9.94882812 3.37636719 -11.171875 3.6328125 C-11.77515625 3.75398438 -12.3784375 3.87515625 -13 4 C-12 2 -12 2 -9.875 0.875 C-6.47608911 -0.15945114 -3.53359114 -0.1385722 0 0 Z " fill="#5D1DB7" transform="translate(332,267)"/>
<path d="M0 0 C2.31 0.66 4.62 1.32 7 2 C4.38058783 3.74627478 2.96175123 4.38722388 0 5 C0 3.35 0 1.7 0 0 Z " fill="#4A1590" transform="translate(345,258)"/>
<path d="M0 0 C0.33 0 0.66 0 1 0 C1.1875 3.375 1.1875 3.375 1 7 C0.01 7.66 -0.98 8.32 -2 9 C-2.33 7.02 -2.66 5.04 -3 3 C-2.34 3 -1.68 3 -1 3 C-0.67 2.01 -0.34 1.02 0 0 Z " fill="#611BB7" transform="translate(79,253)"/>
<path d="M0 0 C4.75 0.875 4.75 0.875 7 2 C6.67 3.32 6.34 4.64 6 6 C3.97945196 4.35830472 1.97956942 2.69088222 0 1 C0 0.67 0 0.34 0 0 Z " fill="#411381" transform="translate(353,76)"/>
<path d="M0 0 C-3.00617269 3.00617269 -5.82381598 2.59585316 -10 3 C-7.29536552 -0.8183075 -4.37912428 -0.24787496 0 0 Z " fill="#441485" transform="translate(242,75)"/>
<path d="M0 0 C1.32 0.33 2.64 0.66 4 1 C-0.75 5 -0.75 5 -3 5 C-2.67 3.68 -2.34 2.36 -2 1 C-1.34 1.33 -0.68 1.66 0 2 C0 1.34 0 0.68 0 0 Z " fill="#4A128D" transform="translate(147,458)"/>
<path d="M0 0 C1.65 0 3.3 0 5 0 C4.01 1.485 4.01 1.485 3 3 C2.34 3 1.68 3 1 3 C1 3.66 1 4.32 1 5 C0.34 5 -0.32 5 -1 5 C-0.67 3.35 -0.34 1.7 0 0 Z " fill="#501892" transform="translate(460,433)"/>
<path d="M0 0 C1.33332095 2.6666419 0.67102033 4.16680303 0 7 C-0.66 7 -1.32 7 -2 7 C-2.33 7.99 -2.66 8.98 -3 10 C-2.25 2.25 -2.25 2.25 0 0 Z " fill="#471485" transform="translate(79,260)"/>
<path d="M0 0 C0.66 0.33 1.32 0.66 2 1 C0.9375 2.5 0.9375 2.5 -1 4 C-4.6875 4.1875 -4.6875 4.1875 -8 4 C-5.31143836 2.20762558 -3.0466145 1.01553817 0 0 Z " fill="#390E72" transform="translate(285,242)"/>
<path d="M0 0 C1.65 0 3.3 0 5 0 C4.67 0.99 4.34 1.98 4 3 C1.4375 4.1875 1.4375 4.1875 -1 5 C-0.67 3.35 -0.34 1.7 0 0 Z " fill="#3B1074" transform="translate(385,236)"/>
<path d="M0 0 C0 3 0 3 -2 5.1875 C-2.66 5.785625 -3.32 6.38375 -4 7 C-4.66 6.67 -5.32 6.34 -6 6 C-5.67 4.68 -5.34 3.36 -5 2 C-4.360625 1.855625 -3.72125 1.71125 -3.0625 1.5625 C-1.02454854 1.18992819 -1.02454854 1.18992819 0 0 Z " fill="#370D69" transform="translate(417,211)"/>
<path d="M0 0 C0 0.99 0 1.98 0 3 C-1.96466413 4.06775224 -3.96855359 5.06553465 -6 6 C-6.66 5.67 -7.32 5.34 -8 5 C-6.68 4.67 -5.36 4.34 -4 4 C-4 3.01 -4 2.02 -4 1 C-2 0 -2 0 0 0 Z " fill="#4B1895" transform="translate(212,34)"/>
<path d="M0 0 C0.12375 0.639375 0.2475 1.27875 0.375 1.9375 C0.58125 2.618125 0.7875 3.29875 1 4 C1.66 4.33 2.32 4.66 3 5 C2.67 6.32 2.34 7.64 2 9 C0.5 7.8125 0.5 7.8125 -1 6 C-1.25 3.375 -1.25 3.375 -1 1 C-0.67 0.67 -0.34 0.34 0 0 Z " fill="#4A168F" transform="translate(29,444)"/>
<path d="M0 0 C-1.64169528 2.02054804 -3.30911778 4.02043058 -5 6 C-5.33 6 -5.66 6 -6 6 C-6 4.02 -6 2.04 -6 0 C-2.25 -1.125 -2.25 -1.125 0 0 Z " fill="#340D6D" transform="translate(483,416)"/>
<path d="M0 0 C1.33332095 2.6666419 0.67102033 4.16680303 0 7 C-0.99 7.33 -1.98 7.66 -3 8 C-2.25 2.25 -2.25 2.25 0 0 Z " fill="#5319A0" transform="translate(273,182)"/>
<path d="M0 0 C1.32 0 2.64 0 4 0 C3.75 1.875 3.75 1.875 3 4 C0.9375 5.25 0.9375 5.25 -1 6 C-0.67 4.02 -0.34 2.04 0 0 Z " fill="#4C178E" transform="translate(121,168)"/>
<path d="M0 0 C0.99 0 1.98 0 3 0 C1.95125002 2.62187494 1.35068687 3.79371361 -1.125 5.25 C-1.74375 5.4975 -2.3625 5.745 -3 6 C-1.125 1.125 -1.125 1.125 0 0 Z " fill="#4B178D" transform="translate(74,165)"/>
<path d="M0 0 C0.6875 1.625 0.6875 1.625 1 4 C-0.4375 7.25 -0.4375 7.25 -2 10 C-2.6875 8.375 -2.6875 8.375 -3 6 C-1.5625 2.75 -1.5625 2.75 0 0 Z " fill="#341066" transform="translate(210,143)"/>
<path d="M0 0 C0.66 0.33 1.32 0.66 2 1 C1.360625 1.268125 0.72125 1.53625 0.0625 1.8125 C-2.33131686 2.88667752 -2.33131686 2.88667752 -3 6 C-3.66 6 -4.32 6 -5 6 C-5 4.68 -5 3.36 -5 2 C-2.625 0.9375 -2.625 0.9375 0 0 Z " fill="#370C6E" transform="translate(156,130)"/>
<path d="" fill="#000000" transform="translate(0,0)"/>
<path d="" fill="#000000" transform="translate(0,0)"/>
<path d="" fill="#000000" transform="translate(0,0)"/>
<path d="" fill="#000000" transform="translate(0,0)"/>
<path d="" fill="#000000" transform="translate(0,0)"/>
<path d="" fill="#000000" transform="translate(0,0)"/>
<path d="" fill="#000000" transform="translate(0,0)"/>
<path d="" fill="#000000" transform="translate(0,0)"/>
<path d="" fill="#000000" transform="translate(0,0)"/>
<path d="" fill="#000000" transform="translate(0,0)"/>
<path d="" fill="#000000" transform="translate(0,0)"/>
<path d="" fill="#000000" transform="translate(0,0)"/>
<path d="" fill="#000000" transform="translate(0,0)"/>
<path d="" fill="#000000" transform="translate(0,0)"/>
<path d="" fill="#000000" transform="translate(0,0)"/>
<path d="" fill="#000000" transform="translate(0,0)"/>
<path d="" fill="#000000" transform="translate(0,0)"/>
<path d="" fill="#000000" transform="translate(0,0)"/>
<path d="" fill="#000000" transform="translate(0,0)"/>
<path d="" fill="#000000" transform="translate(0,0)"/>
<path d="" fill="#000000" transform="translate(0,0)"/>
<path d="" fill="#000000" transform="translate(0,0)"/>
<path d="" fill="#000000" transform="translate(0,0)"/>
<path d="" fill="#000000" transform="translate(0,0)"/>
<path d="" fill="#000000" transform="translate(0,0)"/>
<path d="" fill="#000000" transform="translate(0,0)"/>
<path d="" fill="#000000" transform="translate(0,0)"/>
<path d="" fill="#000000" transform="translate(0,0)"/>
<path d="" fill="#000000" transform="translate(0,0)"/>
<path d="" fill="#000000" transform="translate(0,0)"/>
<path d="" fill="#000000" transform="translate(0,0)"/>
<path d="" fill="#000000" transform="translate(0,0)"/>
<path d="" fill="#000000" transform="translate(0,0)"/>
<path d="" fill="#000000" transform="translate(0,0)"/>
<path d="" fill="#000000" transform="translate(0,0)"/>
<path d="" fill="#000000" transform="translate(0,0)"/>
<path d="" fill="#000000" transform="translate(0,0)"/>
<path d="" fill="#000000" transform="translate(0,0)"/>
<path d="" fill="#000000" transform="translate(0,0)"/>
<path d="" fill="#000000" transform="translate(0,0)"/>
<path d="" fill="#000000" transform="translate(0,0)"/>
<path d="" fill="#000000" transform="translate(0,0)"/>
<path d="" fill="#000000" transform="translate(0,0)"/>
<path d="" fill="#000000" transform="translate(0,0)"/>
<path d="" fill="#000000" transform="translate(0,0)"/>
<path d="" fill="#000000" transform="translate(0,0)"/>
<path d="" fill="#000000" transform="translate(0,0)"/>
<path d="" fill="#000000" transform="translate(0,0)"/>
<path d="" fill="#000000" transform="translate(0,0)"/>
<path d="" fill="#000000" transform="translate(0,0)"/>
<path d="" fill="#000000" transform="translate(0,0)"/>
<path d="" fill="#000000" transform="translate(0,0)"/>
</svg>
